<?xml version="1.0" encoding="UTF-8"?>
<svg version="1.1" viewBox="0 0 1600 1600" width="1280" height="1280" xmlns="http://www.w3.org/2000/svg">
<path transform="translate(735,65)" d="m0 0c1.8 0.137 1.8 0.137 3.63 0.277 38.8 4.16 75.1 26.5 99.9 56 1.49 1.88 2.97 3.78 4.44 5.69 1.06 1.37 1.06 1.37 2.14 2.78 5.13 7.02 9.26 14.4 13.3 22.1 0.781 1.48 0.781 1.48 1.58 2.99 0.489 0.949 0.978 1.9 1.48 2.88 0.652 1.27 0.652 1.27 1.32 2.56 1.39 3.17 2.3 6.36 3.19 9.7 0.717-0.0709 1.43-0.142 2.17-0.215 36.7-3.62 73.4-6.8 110-10 6.47-0.568 12.9-1.14 19.4-1.72 7.42-0.66 14.8-1.31 22.3-1.95 3.75-0.323 7.5-0.65 11.3-0.988 50.7-4.55 50.7-4.55 74.7 0.893 0.728 0.161 1.46 0.322 2.21 0.488 29.5 6.76 55.7 21.9 76.8 43.5 0.946 0.86 0.946 0.86 1.91 1.74 6.69 6.26 11.7 13.4 16.6 21.1 1.03 1.58 2.08 3.14 3.14 4.7 4.61 6.93 7.94 14 11 21.8 0.476 1.19 0.952 2.39 1.44 3.61 5.63 14.3 8.46 27.9 9.87 43.1 0.956 0.236 1.91 0.471 2.9 0.714 10.1 2.51 20.2 5.15 30.3 7.86 1.64 0.438 3.27 0.877 4.91 1.31 4.36 1.17 8.72 2.34 13.1 3.51 2.73 0.734 5.46 1.47 8.19 2.2 31.3 8.4 62.5 16.9 93.8 25.4 8.04 2.2 16.1 4.38 24.1 6.54 3 0.81 6.01 1.62 9.01 2.43 1.81 0.486 3.62 0.97 5.43 1.45 8.59 2.29 17.1 4.7 25.5 7.65 0.671 0.235 1.34 0.47 2.03 0.712 17.7 6.39 34.7 16.8 48.8 29.2 0.575 0.494 1.15 0.988 1.74 1.5 29.9 25.8 48.5 62.2 51.8 102 0.446 6.33 0.695 12.7 0.779 19 0.0178 0.8 0.0356 1.6 0.054 2.43-0.0227 17.8-4.79 35.1-9.43 52.1-0.615 2.29-1.23 4.58-1.84 6.88-1.84 6.85-3.7 13.7-5.56 20.5-0.905 3.33-1.81 6.65-2.71 9.98-4.16 15.3-8.33 30.6-12.5 45.9-2.4 8.77-4.8 17.5-7.19 26.3-0.307 1.13-0.615 2.26-0.931 3.42-0.613 2.25-1.23 4.5-1.84 6.75-10.7 39.1-21.3 78.2-32.2 117-4.19 15.1-8.36 30.3-12.5 45.4-0.231 0.847-0.463 1.69-0.701 2.57-3.5 12.8-6.93 25.6-10.4 38.5-3.71 13.9-7.45 27.9-11.2 41.8-0.193 0.719-0.386 1.44-0.585 2.18-5.61 20.9-11.3 41.8-17 62.7-4.08 14.9-8.12 29.9-12.1 44.8-0.23 0.859-0.46 1.72-0.697 2.6-1.18 4.41-2.36 8.83-3.54 13.2-8.5 31.8-17.1 63.5-25.9 95.1-2.88 10.4-5.71 20.8-8.54 31.2-4.57 16.8-9.16 33.6-13.8 50.4-0.549 2-1.1 4-1.65 6.01-3.82 14-7.66 27.9-11.5 41.8-1.27 4.59-2.54 9.18-3.82 13.8-0.316 1.14-0.631 2.28-0.956 3.45-4.4 15.9-8.71 31.8-13 47.7-0.243 0.908-0.486 1.82-0.736 2.75-2.42 9.06-4.84 18.1-7.25 27.2-22.7 85.2-22.7 85.2-51.4 115-0.819 0.882-1.64 1.76-2.48 2.67-7.16 7.49-15 13.5-23.5 19.3-1.04 0.71-2.08 1.42-3.14 2.15-23.4 15.2-51 23.5-78.9 23.8-1.68 0.039-3.36 0.0781-5.04 0.117-1.72 0.0263-3.43 0.0498-5.15 0.0703-1.14 0.0199-1.14 0.0199-2.3 0.0403-12.7 0.0147-24.9-2.54-37-5.67-2.08-0.534-4.16-1.05-6.24-1.57-12.3-3.11-24.6-6.56-36.8-9.98-10.8-3.01-21.6-5.99-32.5-8.94-0.75-0.204-1.5-0.408-2.27-0.618-3.85-1.05-7.71-2.1-11.6-3.14-25.9-7.04-51.8-14.1-77.6-21.3-39.5-11-79.1-21.7-119-32.3-17.8-4.77-35.7-9.54-53.5-14.4-1.38-0.373-1.38-0.373-2.78-0.754-10-2.72-20.1-5.44-30.1-8.17-5.43-1.48-10.9-2.96-16.3-4.43-3.32-0.901-6.63-1.8-9.95-2.71-3.68-1-7.36-2-11-3.01-1.64-0.448-1.64-0.448-3.31-0.904-26-7.04-47.6-4.71-72.6 4.89-21.5 8.17-43.3 11.7-66.2 10.8-1.16-0.0457-1.16-0.0457-2.34-0.0923-41.4-2.01-78.3-22.5-106-52.5-16.4-18.2-26.5-39.8-36-62.2-4.44-10.4-9-20.8-13.6-31.1-0.819-1.85-1.64-3.7-2.46-5.55-6.42-14.5-12.9-29-19.3-43.5-5.7-12.8-11.4-25.7-17-38.5-3.27-7.5-6.57-15-9.94-22.4-4.32-9.55-8.52-19.1-12.7-28.8-0.614-1.41-1.23-2.81-1.84-4.22-0.313-0.717-0.626-1.43-0.949-2.17-2.47-5.66-4.96-11.3-7.44-17-0.378-0.86-0.756-1.72-1.15-2.61-0.77-1.75-1.54-3.5-2.31-5.26-6.25-14.2-12.5-28.4-18.6-42.7-3.74-8.65-7.52-17.3-11.3-25.9-3.5-7.95-6.96-15.9-10.4-23.9-6.3-14.6-12.7-29.1-19.1-43.6-2.26-5.12-4.52-10.2-6.77-15.4-4.75-10.8-9.55-21.6-14.4-32.4-14.1-31.8-28.2-63.6-42.2-95.5-2.59-5.89-5.17-11.8-7.77-17.7-8.84-20.1-17.6-40.2-26.4-60.4-5.14-11.8-10.3-23.7-15.5-35.5-3.02-6.88-6.03-13.8-9-20.7-0.271-0.627-0.542-1.25-0.821-1.9-0.27-0.626-0.54-1.25-0.819-1.9-5.17-12-10.4-23.9-15.8-35.8-5.24-11.6-10.4-23.3-15.6-35-5.92-13.4-11.9-26.8-17.8-40.2-7.04-15.8-14-31.6-20.9-47.5-1.86-4.33-3.74-8.66-5.65-13-1.18-2.69-2.36-5.37-3.54-8.06-0.813-1.85-1.63-3.7-2.45-5.54-7.12-16.3-11.7-32.6-14.1-50.2-0.132-0.971-0.263-1.94-0.399-2.94-0.738-5.81-1.11-11.5-0.914-17.3 0.0263-0.835 0.0527-1.67 0.0798-2.53 0.886-21.3 5.38-42.4 15-61.6 0.992-1.98 1.94-3.99 2.89-5.99 5.57-11.4 12.9-21.2 21.1-30.9 0.633-0.76 1.27-1.52 1.92-2.3 0.934-1.1 0.934-1.1 1.89-2.22 0.564-0.666 1.13-1.33 1.71-2.02 1.48-1.45 1.48-1.45 3.48-1.45v-2c2.97-2.76 6.2-5.21 9.38-7.72 1.55-1.23 3.08-2.49 4.61-3.75 5.8-4.67 11.7-8.68 18.2-12.3 0.778-0.43 1.56-0.861 2.36-1.3 9.07-4.93 18.5-9.04 27.9-13.1 1.89-0.825 3.77-1.65 5.66-2.48 13.2-5.77 26.5-11.5 39.7-17.1 10-4.27 19.9-8.64 29.9-13.1 6.83-3.05 13.7-6.03 20.6-8.96 6.83-2.91 13.6-5.94 20.3-9.11 6.2-2.91 12.5-5.71 18.7-8.51 0.633-0.284 1.27-0.568 1.92-0.861 8.42-3.78 16.9-7.49 25.4-11 4.12-1.7 8.18-3.51 12.2-5.39 8.92-4.14 17.9-8.06 27-12 1.85-0.81 3.7-1.62 5.55-2.43 2.75-1.2 5.49-2.41 8.24-3.61 5.76-2.52 11.5-5.06 17.3-7.59 10.8-4.77 21.6-9.51 32.5-14.2 1.68-0.732 3.35-1.46 5.03-2.2 8.82-3.86 17.7-7.67 26.5-11.4 6.37-2.66 12.7-5.45 18.9-8.38 5.61-2.58 11.3-4.96 17-7.37 13.6-5.79 27.2-11.7 40.7-17.8 0.806-0.362 1.61-0.724 2.44-1.1 3.18-1.43 6.36-2.86 9.53-4.28 6.56-2.95 13.1-5.89 19.7-8.81 1.03-0.458 2.06-0.916 3.12-1.39 6.98-3.1 14-6.19 21-9.28 0.911-0.403 1.82-0.805 2.76-1.22 4.7-2.08 9.41-4.15 14.1-6.23 7.95-3.51 15.9-7.01 23.8-10.6 35.3-15.9 67.7-27 107-23.4z" fill="#FBFCFE"/>
<path transform="translate(735,65)" d="m0 0c1.8 0.137 1.8 0.137 3.63 0.277 38.8 4.16 75.1 26.5 99.9 56 1.49 1.88 2.97 3.78 4.44 5.69 1.06 1.37 1.06 1.37 2.14 2.78 5.13 7.02 9.26 14.4 13.3 22.1 0.781 1.48 0.781 1.48 1.58 2.99 0.489 0.949 0.978 1.9 1.48 2.88 0.652 1.27 0.652 1.27 1.32 2.56 1.39 3.17 2.3 6.36 3.19 9.7 0.717-0.0709 1.43-0.142 2.17-0.215 36.7-3.62 73.4-6.8 110-10 6.47-0.568 12.9-1.14 19.4-1.72 7.42-0.66 14.8-1.31 22.3-1.95 3.75-0.323 7.5-0.65 11.3-0.988 50.7-4.55 50.7-4.55 74.7 0.893 0.728 0.161 1.46 0.322 2.21 0.488 29.5 6.76 55.7 21.9 76.8 43.5 0.946 0.86 0.946 0.86 1.91 1.74 6.69 6.26 11.7 13.4 16.6 21.1 1.03 1.58 2.08 3.14 3.14 4.7 4.61 6.93 7.94 14 11 21.8 0.476 1.19 0.952 2.39 1.44 3.61 5.63 14.3 8.46 27.9 9.87 43.1 0.956 0.236 1.91 0.471 2.9 0.714 10.1 2.51 20.2 5.15 30.3 7.86 1.64 0.438 3.27 0.877 4.91 1.31 4.36 1.17 8.72 2.34 13.1 3.51 2.73 0.734 5.46 1.47 8.19 2.2 31.3 8.4 62.5 16.9 93.8 25.4 8.04 2.2 16.1 4.38 24.1 6.54 3 0.81 6.01 1.62 9.01 2.43 1.81 0.486 3.62 0.97 5.43 1.45 8.59 2.29 17.1 4.7 25.5 7.65 0.671 0.235 1.34 0.47 2.03 0.712 17.7 6.39 34.7 16.8 48.8 29.2 0.575 0.494 1.15 0.988 1.74 1.5 29.9 25.8 48.5 62.2 51.8 102 0.446 6.33 0.695 12.7 0.779 19 0.0178 0.8 0.0356 1.6 0.054 2.43-0.0227 17.8-4.79 35.1-9.43 52.1-0.615 2.29-1.23 4.58-1.84 6.88-1.84 6.85-3.7 13.7-5.56 20.5-0.905 3.33-1.81 6.65-2.71 9.98-4.16 15.3-8.33 30.6-12.5 45.9-2.4 8.77-4.8 17.5-7.19 26.3-0.307 1.13-0.615 2.26-0.931 3.42-0.613 2.25-1.23 4.5-1.84 6.75-10.7 39.1-21.3 78.2-32.2 117-4.19 15.1-8.36 30.3-12.5 45.4-0.231 0.847-0.463 1.69-0.701 2.57-3.5 12.8-6.93 25.6-10.4 38.5-3.71 13.9-7.45 27.9-11.2 41.8-0.193 0.719-0.386 1.44-0.585 2.18-5.61 20.9-11.3 41.8-17 62.7-4.08 14.9-8.12 29.9-12.1 44.8-0.23 0.859-0.46 1.72-0.697 2.6-1.18 4.41-2.36 8.83-3.54 13.2-8.5 31.8-17.1 63.5-25.9 95.1-2.88 10.4-5.71 20.8-8.54 31.2-4.57 16.8-9.16 33.6-13.8 50.4-0.549 2-1.1 4-1.65 6.01-3.82 14-7.66 27.9-11.5 41.8-1.27 4.59-2.54 9.18-3.82 13.8-0.316 1.14-0.631 2.28-0.956 3.45-4.4 15.9-8.71 31.8-13 47.7-0.243 0.908-0.486 1.82-0.736 2.75-2.42 9.06-4.84 18.1-7.25 27.2-22.7 85.2-22.7 85.2-51.4 115-0.819 0.882-1.64 1.76-2.48 2.67-7.16 7.49-15 13.5-23.5 19.3-1.04 0.71-2.08 1.42-3.14 2.15-23.4 15.2-51 23.5-78.9 23.8-1.68 0.039-3.36 0.0781-5.04 0.117-1.72 0.0263-3.43 0.0498-5.15 0.0703-1.14 0.0199-1.14 0.0199-2.3 0.0403-12.7 0.0147-24.9-2.54-37-5.67-2.08-0.534-4.16-1.05-6.24-1.57-12.3-3.11-24.6-6.56-36.8-9.98-10.8-3.01-21.6-5.99-32.5-8.94-0.75-0.204-1.5-0.408-2.27-0.618-3.85-1.05-7.71-2.1-11.6-3.14-25.9-7.04-51.8-14.1-77.6-21.3-39.5-11-79.1-21.7-119-32.3-17.8-4.77-35.7-9.54-53.5-14.4-1.38-0.373-1.38-0.373-2.78-0.754-10-2.72-20.1-5.44-30.1-8.17-5.43-1.48-10.9-2.96-16.3-4.43-3.32-0.901-6.63-1.8-9.95-2.71-3.68-1-7.36-2-11-3.01-1.64-0.448-1.64-0.448-3.31-0.904-26-7.04-47.6-4.71-72.6 4.89-21.5 8.17-43.3 11.7-66.2 10.8-1.16-0.0457-1.16-0.0457-2.34-0.0923-41.4-2.01-78.3-22.5-106-52.5-16.4-18.2-26.5-39.8-36-62.2-4.44-10.4-9-20.8-13.6-31.1-0.819-1.85-1.64-3.7-2.46-5.55-6.42-14.5-12.9-29-19.3-43.5-5.7-12.8-11.4-25.7-17-38.5-3.27-7.5-6.57-15-9.94-22.4-4.32-9.55-8.52-19.1-12.7-28.8-0.614-1.41-1.23-2.81-1.84-4.22-0.313-0.717-0.626-1.43-0.949-2.17-2.47-5.66-4.96-11.3-7.44-17-0.378-0.86-0.756-1.72-1.15-2.61-0.77-1.75-1.54-3.5-2.31-5.26-6.25-14.2-12.5-28.4-18.6-42.7-3.74-8.65-7.52-17.3-11.3-25.9-3.5-7.95-6.96-15.9-10.4-23.9-6.3-14.6-12.7-29.1-19.1-43.6-2.26-5.12-4.52-10.2-6.77-15.4-4.75-10.8-9.55-21.6-14.4-32.4-14.1-31.8-28.2-63.6-42.2-95.5-2.59-5.89-5.17-11.8-7.77-17.7-8.84-20.1-17.6-40.2-26.4-60.4-5.14-11.8-10.3-23.7-15.5-35.5-3.02-6.88-6.03-13.8-9-20.7-0.271-0.627-0.542-1.25-0.821-1.9-0.27-0.626-0.54-1.25-0.819-1.9-5.17-12-10.4-23.9-15.8-35.8-5.24-11.6-10.4-23.3-15.6-35-5.92-13.4-11.9-26.8-17.8-40.2-7.04-15.8-14-31.6-20.9-47.5-1.86-4.33-3.74-8.66-5.65-13-1.18-2.69-2.36-5.37-3.54-8.06-0.813-1.85-1.63-3.7-2.45-5.54-7.12-16.3-11.7-32.6-14.1-50.2-0.132-0.971-0.263-1.94-0.399-2.94-0.738-5.81-1.11-11.5-0.914-17.3 0.0263-0.835 0.0527-1.67 0.0798-2.53 0.886-21.3 5.38-42.4 15-61.6 0.992-1.98 1.94-3.99 2.89-5.99 5.57-11.4 12.9-21.2 21.1-30.9 0.633-0.76 1.27-1.52 1.92-2.3 0.934-1.1 0.934-1.1 1.89-2.22 0.564-0.666 1.13-1.33 1.71-2.02 1.48-1.45 1.48-1.45 3.48-1.45v-2c2.97-2.76 6.2-5.21 9.38-7.72 1.55-1.23 3.08-2.49 4.61-3.75 5.8-4.67 11.7-8.68 18.2-12.3 0.778-0.43 1.56-0.861 2.36-1.3 9.07-4.93 18.5-9.04 27.9-13.1 1.89-0.825 3.77-1.65 5.66-2.48 13.2-5.77 26.5-11.5 39.7-17.1 10-4.27 19.9-8.64 29.9-13.1 6.83-3.05 13.7-6.03 20.6-8.96 6.83-2.91 13.6-5.94 20.3-9.11 6.2-2.91 12.5-5.71 18.7-8.51 0.633-0.284 1.27-0.568 1.92-0.861 8.42-3.78 16.9-7.49 25.4-11 4.12-1.7 8.18-3.51 12.2-5.39 8.92-4.14 17.9-8.06 27-12 1.85-0.81 3.7-1.62 5.55-2.43 2.75-1.2 5.49-2.41 8.24-3.61 5.76-2.52 11.5-5.06 17.3-7.59 10.8-4.77 21.6-9.51 32.5-14.2 1.68-0.732 3.35-1.46 5.03-2.2 8.82-3.86 17.7-7.67 26.5-11.4 6.37-2.66 12.7-5.45 18.9-8.38 5.61-2.58 11.3-4.96 17-7.37 13.6-5.79 27.2-11.7 40.7-17.8 0.806-0.362 1.61-0.724 2.44-1.1 3.18-1.43 6.36-2.86 9.53-4.28 6.56-2.95 13.1-5.89 19.7-8.81 1.03-0.458 2.06-0.916 3.12-1.39 6.98-3.1 14-6.19 21-9.28 0.911-0.403 1.82-0.805 2.76-1.22 4.7-2.08 9.41-4.15 14.1-6.23 7.95-3.51 15.9-7.01 23.8-10.6 35.3-15.9 67.7-27 107-23.4zm56.5 158c-1.61 0.836-3.24 1.64-4.88 2.42-26.2 12.5-47.7 34.6-61.6 59.9-0.707 1.19-1.41 2.38-2.12 3.56-4.99 9.15-8.29 18.5-11.3 28.4-0.655 2.12-1.37 4.21-2.1 6.31-1.76 5.25-3.05 10.6-4.34 16-1.9 7.73-3.89 15.4-6.12 23.1-2.37 8.11-4.53 16.3-6.62 24.4-1.87 7.29-3.75 14.6-5.94 21.8-3.23 10.7-5.91 21.5-8.67 32.3-2.49 9.68-4.98 19.4-7.76 29-1.76 6.08-3.36 12.2-4.94 18.3-2.15 8.31-4.42 16.6-6.8 24.8-2.36 8.19-4.58 16.4-6.78 24.7-1.73 6.46-3.49 12.9-5.29 19.3-1.3 4.63-2.55 9.26-3.69 13.9-1.79 7.33-3.93 14.6-6.02 21.8-2.03 7.04-3.98 14.1-5.93 21.2-0.629 2.27-1.26 4.54-1.89 6.81-1.94 6.96-3.87 13.9-5.72 20.9-3.47 13.1-7.16 26.1-10.9 39.1-1.61 5.62-3.12 11.3-4.46 17-0.457 1.77-0.991 3.51-1.57 5.24-1.03 3.13-1.92 6.25-2.77 9.43-0.319 1.2-0.637 2.39-0.965 3.62-0.338 1.28-0.675 2.55-1.02 3.86-0.357 1.34-0.713 2.68-1.07 4.02-2.33 8.77-4.61 17.6-6.87 26.4-2.26 8.79-4.65 17.5-7.18 26.2-1.82 6.29-3.5 12.6-5.13 18.9-2.05 7.97-4.2 15.9-6.44 23.8-2.98 10.6-5.83 21.1-8.64 31.8-2.43 9.16-4.95 18.3-7.56 27.4-1.73 6.09-3.31 12.2-4.83 18.3-1.9 7.66-3.89 15.3-5.9 22.9-0.636 2.42-1.27 4.85-1.9 7.27-2.2 8.39-4.51 16.7-6.99 25-2.35 7.91-4.35 15.9-6.36 23.9-1.96 7.77-4.07 15.5-6.47 23.1-1.67 5.5-3.06 11.1-4.47 16.6-2.04 7.95-4.11 15.9-6.41 23.7-1.57 5.49-3.05 11-4.53 16.5l-0.915 3.4c-1.4 5.21-2.78 10.4-4.14 15.6-0.225 0.865-0.45 1.73-0.682 2.62-0.412 1.59-0.822 3.18-1.23 4.78-0.724 2.8-1.45 5.52-2.55 8.2-1.19 3.05-2.03 6.1-2.85 9.27-0.254 0.967-0.254 0.967-0.513 1.95-0.368 1.41-0.735 2.81-1.1 4.22-0.6 2.31-1.2 4.61-1.81 6.92-0.861 3.28-1.72 6.57-2.58 9.85-0.325 1.24-0.325 1.24-0.656 2.5-0.445 1.7-0.889 3.4-1.33 5.1-0.652 2.5-1.31 5-1.96 7.49-0.196 0.753-0.392 1.51-0.594 2.28-1.07 4.09-2.28 8.09-3.65 12.1-0.359 1.49-0.694 2.99-1 4.5-0.733 3.61-1.82 7.01-3 10.5-2.5 8.14-4.63 16.4-6.62 24.6-0.206 0.846-0.412 1.69-0.624 2.56-0.616 2.6-1.19 5.2-1.75 7.81-0.193 0.904-0.387 1.81-0.586 2.74-1.51 7.88-1.69 15.6-1.62 23.6 0.0183 2.15 0.0205 4.3 0.0203 6.46-0.344 14.9-0.344 14.9 3.19 29.2 0.628 2.33 1.23 4.66 1.81 7 2.61 10.1 6.22 19.8 11.2 29 0.356 0.692 0.712 1.38 1.08 2.1 10.7 20.1 26.7 36.3 45 49.5 1.25 0.9 2.49 1.81 3.73 2.72 3.56 2.61 7.1 4.78 11.1 6.7l3.16 1.53c1.44 0.696 1.44 0.696 2.9 1.41 1.29 0.687 2.58 1.37 3.88 2.06 11.7 5.8 24.6 8.83 37.2 12.2 4.72 1.26 9.43 2.55 14.1 3.83 1.37 0.373 1.37 0.373 2.76 0.753 12.2 3.32 24.3 6.66 36.4 10.2 4.08 1.12 8.18 2.15 12.3 3.17 5.76 1.43 11.5 2.91 17.3 4.39 1.19 0.304 2.38 0.607 3.61 0.92 1.72 0.444 1.72 0.444 3.48 0.896 1.03 0.264 2.06 0.527 3.12 0.799 2.71 0.78 5.25 1.75 7.86 2.82 1.78 0.49 3.58 0.947 5.38 1.38 5.95 1.45 11.9 3.01 17.8 4.59 2.51 0.673 5.02 1.34 7.54 2 6.7 1.76 13.4 3.62 20 5.59 5.74 1.71 11.5 3.28 17.3 4.7 6.03 1.49 12 3.13 18 4.74 2.5 0.667 5 1.33 7.5 2 3.61 0.962 7.22 1.92 10.8 2.89 6.08 1.63 12.2 3.24 18.3 4.81 1.19 0.306 2.37 0.611 3.59 0.927 2.36 0.609 4.73 1.22 7.09 1.82 5.71 1.47 11.4 3.03 17 4.75 5.86 1.73 11.8 3.24 17.7 4.8 1.31 0.344 2.61 0.689 3.92 1.03 1.99 0.525 3.98 1.05 5.98 1.57 14.2 3.75 28.5 7.56 42.7 11.5 8.12 2.25 16.2 4.46 24.4 6.64 7.45 2 14.9 4.03 22.3 6.17 18.2 5.23 36.5 10.2 54.8 15.1 1.16 0.311 1.16 0.311 2.35 0.629 5.41 1.45 10.8 2.89 16.2 4.32 6.55 1.74 13.1 3.51 19.6 5.33 6.55 1.82 13.1 3.63 19.6 5.43 0.83 0.228 1.66 0.456 2.52 0.691 2.54 0.697 5.07 1.39 7.61 2.09 2.54 0.696 5.07 1.39 7.61 2.09 1.67 0.459 3.34 0.917 5.01 1.37 4.11 1.13 8.21 2.27 12.3 3.43 11.1 3.2 11.1 3.2 22.4 5.42 1.2 0.175 1.2 0.175 2.42 0.354 26.1 3.36 57.3 2.28 81.2-10.2 1.43-0.696 1.43-0.696 2.88-1.41 6.15-3.02 12.2-6.2 18.1-9.59v-2c0.969-0.268 1.94-0.536 2.94-0.812 1.01-0.392 2.02-0.784 3.06-1.19 0.33-0.99 0.66-1.98 1-3 2-0.667 4-1.33 6-2 0.33-0.99 0.66-1.98 1-3 1.33-0.667 2.67-1.33 4-2 2.75-2.42 2.75-2.42 5-5v-2l1.69-0.688c5.07-2.88 8.33-7.52 11.7-12.1 1.67-2.25 3.41-4.42 5.17-6.61 3.34-4.3 5.95-8.72 8.44-13.6l1.69-3.15c6.42-12.3 10.2-25.1 13.8-38.4 0.345-1.25 0.69-2.5 1.05-3.8 5.17-18.8 10.2-37.6 15.2-56.5 4.97-18.6 9.99-37.1 15.2-55.6 2.26-7.96 4.43-15.9 6.54-23.9 3.85-14.6 7.86-29.1 11.9-43.6 1.39-5.03 2.78-10.1 4.17-15.1 0.177-0.64 0.354-1.28 0.536-1.94 3.99-14.4 7.96-28.9 11.9-43.3 0.731-2.67 1.46-5.33 2.2-8 3.39-12.3 6.76-24.7 10-37 2.2-8.42 4.5-16.8 6.79-25.2 0.501-1.84 1-3.67 1.5-5.51 3.22-11.8 6.46-23.6 9.7-35.4 0.653-2.38 1.31-4.76 1.96-7.14 0.218-0.794 0.436-1.59 0.66-2.41 0.442-1.61 0.884-3.22 1.33-4.83 1.08-3.94 2.16-7.88 3.25-11.8 4.84-17.6 9.62-35.3 14.3-52.9 3.34-12.7 6.76-25.3 10.2-37.9 4.78-17.5 9.53-35.1 14.1-52.6 10.1-38.6 20.9-77.1 31.5-116 4.94-17.9 9.87-35.9 14.7-53.8 3.28-12.1 6.61-24.1 9.97-36.2 3.27-11.7 6.46-23.5 9.58-35.2 2.97-11.2 6-22.4 9.05-33.5 0.255-0.937 0.511-1.87 0.774-2.84 2.69-9.87 5.4-19.7 8.17-29.6 5.44-19.2 5.44-19.2 10.2-38.6 0.192-0.836 0.384-1.67 0.582-2.53 8.51-38.8-0.327-78.3-20.6-112-2.51-3.8-5.18-7.42-8-11-0.692-0.895-1.38-1.79-2.1-2.71-3.42-4.36-6.87-8.48-10.9-12.3-0.757-0.78-1.51-1.56-2.29-2.36-6.9-6.72-15.1-12-23.2-17.1-2.15-1.36-4.18-2.79-6.21-4.31-3.33-2.31-6.48-3.77-10.2-5.25-1.07-0.471-2.14-0.941-3.25-1.43-3.7-1.59-7.48-2.89-11.3-4.14l-1.92-0.631c-1.84-0.604-3.68-1.21-5.52-1.81-1-0.342-2-0.683-3.03-1.04-3.28-1.07-6.57-1.96-9.91-2.84-1.34-0.354-2.68-0.708-4.03-1.06-0.677-0.178-1.35-0.356-2.05-0.539-3-0.79-5.99-1.6-8.98-2.4-4.61-1.23-9.23-2.45-13.8-3.64-1.03-0.266-2.05-0.531-3.11-0.805-2.03-0.526-4.07-1.05-6.1-1.57-4.71-1.22-9.33-2.54-13.9-4.11-1.49-0.359-2.99-0.694-4.5-1-2.43-0.494-4.71-1.07-7.06-1.88-4.92-1.61-9.92-2.84-14.9-4.12-5.9-1.51-11.7-3.03-17.5-5-2.31-0.642-4.62-1.27-6.94-1.88-1.32-0.349-2.65-0.698-3.97-1.05-0.674-0.177-1.35-0.354-2.04-0.537-2.02-0.533-4.03-1.07-6.04-1.62-6.03-1.63-12.1-3.19-18.2-4.5-2.67-0.622-5.23-1.54-7.83-2.43-3.65-1.04-7.33-2.02-11-3-1.12-0.299-2.23-0.598-3.38-0.906-5.52-1.48-11-2.94-16.6-4.39-0.84-0.221-1.68-0.441-2.55-0.668-1.64-0.429-3.27-0.857-4.91-1.28-4.55-1.19-9.08-2.45-13.6-3.75-9.12-2.49-18.3-4.83-27.4-7.07-2.11-0.551-4.21-1.15-6.27-1.86-5.02-1.64-10.2-2.82-15.3-4.07-6.08-1.48-12.1-2.98-18-5-8.04-2.3-16.2-4.35-24.2-6.44-16.2-4.2-16.2-4.2-22.6-5.88-1.08-0.285-2.16-0.57-3.27-0.863-2.02-0.571-4.03-1.2-6.02-1.87-2.47-0.817-4.85-1.44-7.39-1.96-3.61-0.733-7-1.83-10.5-3-2.89-0.845-5.79-1.64-8.69-2.44-0.802-0.222-1.6-0.443-2.43-0.672-4.14-1.14-8.29-2.27-12.4-3.39-3.76-1.02-7.5-2.11-11.2-3.23-7.85-2.35-15.7-4.44-23.7-6.39-7.8-1.92-15.5-4.06-23.3-6.24-6.09-1.72-12.2-3.4-18.3-5.09-1.74-0.483-3.48-0.968-5.22-1.45-4.93-1.37-9.84-2.59-14.9-3.56-1.88-0.527-1.88-0.527-4.88-2.53-2.07-0.603-4.15-1.13-6.25-1.62-1.43-0.343-2.85-0.689-4.28-1.04-0.835-0.203-1.67-0.405-2.53-0.614-5.57-1.38-11.1-2.82-16.7-4.25-2.02-0.523-4.05-1.04-6.07-1.57-19.8-5.09-19.8-5.09-25.4-7-5.44-1.8-11.1-2.75-16.7-3.91-0.918-0.199-1.84-0.397-2.78-0.602-28.9-6.13-62.6-1.27-88.8 12.3z" fill="#FCFDFF"/>
<path transform="translate(1124,170)" d="m0 0c1.02 0.355 1.02 0.355 2.07 0.718 11.5 4.15 21.7 10.7 31.9 17.3 0.673 0.419 1.35 0.838 2.04 1.27 1.36 0.857 2.67 1.79 3.96 2.73v2c0.884 0.393 0.884 0.393 1.79 0.793 2.33 1.27 3.82 2.61 5.65 4.52 0.556 0.574 1.11 1.15 1.68 1.74 0.62 0.643 1.24 1.29 1.88 1.95 0.803 0.793 1.61 1.59 2.43 2.4 15.2 15.3 25.8 33.6 33.1 53.8 0.922 2.53 1.92 4.95 3.01 7.42 3.36 8.05 4.69 16.8 5.42 25.4-3.93 1.31-6.29 0.0566-10-1.31-5.39-1.9-10.6-3.36-16.2-4.13-2.37-0.476-4.46-1.09-6.73-1.88-6.1-2.09-12.3-3.74-18.5-5.43-2.6-0.711-5.2-1.42-7.8-2.14-0.978-0.267-0.978-0.267-1.97-0.54-5.11-1.4-10.2-2.83-15.3-4.28-10.9-3.09-21.9-5.99-32.9-8.81-6.77-1.74-13.5-3.6-20.2-5.64-7.24-2.17-14.6-3.94-21.9-5.71-5.13-1.25-10.1-2.66-15.1-4.38-4.8-1.56-9.71-2.72-14.6-3.95-10-2.56-20-5.23-30-8-1.23-0.341-2.46-0.682-3.72-1.03-2.32-0.645-4.65-1.29-6.97-1.94-6.01-1.66-12-3.25-18.1-4.84-2.5-0.666-5-1.33-7.5-2-3.8-1.01-7.59-2.03-11.4-3.04-6.42-1.71-12.8-3.43-19.2-5.19-5.3-1.44-10.6-2.85-15.9-4.26-3.15-0.837-6.29-1.68-9.44-2.52-1.24-0.33-2.48-0.66-3.76-1-2.46-0.659-4.92-1.33-7.38-2-3.78-1.03-7.56-2.02-11.4-3-0.665-0.174-1.33-0.348-2.02-0.527-11.5-2.94-22.2-4.17-34-4.04-0.794 0.00293-1.59 0.00586-2.41 0.00888-22.4 0.123-47 3.75-66.5 15.6-1.96 0.772-3.94 1.48-5.94 2.16-2.54 1.04-4.74 2.39-7.06 3.84-0.897 0.556-1.79 1.11-2.72 1.68-0.918 0.579-1.84 1.16-2.78 1.75-0.918 0.576-1.84 1.15-2.78 1.75-2.78 1.8-2.78 1.8-5.44 4.04-2.28 1.78-2.28 1.78-4.28 1.78-0.33 0.99-0.66 1.98-1 3-1.33 0.682-2.66 1.35-4 2-1.69 1.7-1.69 1.7-3.25 3.69-2.38 2.83-4.76 5.24-7.62 7.56-5.31 4.5-9.11 10.1-13.1 15.8-0.508 0.687-1.02 1.37-1.54 2.08-15.5 21-22.4 46.7-29 71.5-0.75 2.78-1.5 5.57-2.25 8.35-0.183 0.68-0.367 1.36-0.556 2.06-1.18 4.36-2.4 8.71-3.66 13-1.67 5.81-3.24 11.6-4.79 17.5-2.68 10.1-5.44 20.1-8.18 30.2-0.329 1.21-0.658 2.42-0.997 3.66-4.62 17-9.3 33.9-14.1 50.8-4.54 16.2-8.96 32.5-13.3 48.7-1.16 4.3-2.32 8.59-3.5 12.9-0.278 1.01-0.556 2.02-0.842 3.07-0.49 1.78-0.982 3.56-1.48 5.34-1.43 5.21-2.68 10.4-3.8 15.7-0.949-0.804-1.9-1.61-2.88-2.44-0.642-0.544-1.28-1.09-1.95-1.65-1.53-1.34-3.02-2.73-4.48-4.14-8.82-8.43-19-13.8-31.4-13.8-8.59 0.561-15.6 3.1-23.2 7h-2l-1 3c-1.17 1.02-2.39 2-3.62 2.94-9.28 7.92-15.6 21.8-17.2 33.9l-0.188 3.19c-3.87-3.56-6.3-6.99-8.75-11.6-6.66-12.1-15.4-23.5-29.1-27.9-12.3-2.81-23.7-1.61-34.6 4.86-6.71 4.2-6.71 4.2-12.1 9.83-0.696 0.901-0.696 0.901-1.41 1.82h-2c-0.268 0.709-0.536 1.42-0.812 2.15-1.23 2.94-2.67 5.67-4.19 8.48-2.9 5.76-4.39 11-5 17.4-0.0709 0.713-0.142 1.43-0.215 2.16-1.05 22.5 11.7 42.8 26.2 58.8 1.64 1.69 3.31 3.35 5 5 4.05 3.96 8 7.94 11.7 12.2 1.88 2.19 3.55 3.94 5.81 5.75 2.13 1.71 3.59 3.21 5.32 5.29 3.36 3.88 6.91 7.5 10.6 11.1 0.571 0.565 1.14 1.13 1.73 1.71 2.39 2.36 4.78 4.72 7.18 7.07 1.77 1.74 3.52 3.48 5.28 5.22 0.547 0.533 1.09 1.07 1.66 1.62 1.3 1.29 2.55 2.63 3.78 3.99v2c1.32 0.66 2.64 1.32 4 2v2c0.99 0.33 1.98 0.66 3 1 1.51 1.57 1.51 1.57 3.12 3.56 2.71 3.18 5.51 6.15 8.56 9l2.2 2.07c1.99 1.57 1.99 1.57 4.2 1.33 2.48-1.24 3.33-2.51 4.85-4.83 0.593-0.888 1.19-1.78 1.8-2.69 0.345-0.525 0.69-1.05 1.04-1.59 2.02-3.05 4.09-6.07 6.16-9.1 1.15-1.68 2.3-3.37 3.44-5.06 2.74-4.03 5.56-7.9 8.62-11.7 1.38-1.99 2.73-3.99 4.06-6l2.04-3.06c1.21-1.87 2.37-3.79 3.45-5.74 1.98-3 4.07-3.25 7.45-4.2 0.33-0.66 0.66-1.32 1-2-1.61 7.59-3.57 15.1-5.6 22.5-0.354 1.31-0.708 2.63-1.06 3.94-0.938 3.48-1.88 6.96-2.82 10.4-0.585 2.16-1.17 4.32-1.75 6.48-4.51 16.7-9.06 33.4-13.8 50-2.78 9.79-5.39 19.6-7.97 29.5-3 11.4-6.11 22.8-9.29 34.1-4.7 16.8-9.21 33.6-13.7 50.5-2.81 10.5-5.69 21-8.7 31.5-2.97 10.3-5.77 20.7-8.59 31.1-1.64 6.05-3.29 12.1-4.94 18.1-0.487 1.79-0.487 1.79-0.984 3.61-2.76 10.1-5.54 20.2-8.35 30.3-0.202 0.727-0.404 1.45-0.613 2.2-2.55 9.15-5.14 18.3-7.78 27.4-2.08 7.27-3.98 14.6-5.87 21.9-1.46 5.66-2.97 11.3-4.55 16.9-3.13 11.1-6.08 22.3-9.05 33.5-1.19 4.48-2.39 8.96-3.59 13.4-3.73 13.9-7.4 27.9-11 41.9-1.84 7.15-3.71 14.3-5.64 21.4-1.82 6.73-3.6 13.5-5.37 20.2-0.27 1.01-0.54 2.03-0.818 3.07-3.69 14-5.25 27.4-5.18 41.9 0.00274 0.755 0.00548 1.51 0.0083 2.29 0.125 9.87 1.88 19 4.41 28.5 0.587 2.23 1.13 4.46 1.67 6.7 2.49 10 6.11 18.8 11 27.8 1.16 2.19 2.17 4.43 3.21 6.68 2.73 5.51 6.32 10.5 9.85 15.5 0.696 0.986 0.696 0.986 1.41 1.99 0.419 0.586 0.837 1.17 1.27 1.77 1.16 1.76 1.16 1.76 2.19 3.92 1.25 2.39 2.57 2.71 4.97 3.84 1.64 1.7 1.64 1.7 3.25 3.69 3.59 4.23 7.47 7.79 11.8 11.3l1.95 1.64c11.5 9.32 25.3 18 39.1 23.4l2.38 1c3.16 1.2 6.37 2.08 9.62 3 1.38 0.451 2.75 0.91 4.12 1.38 9.48 3.18 18.9 5.98 28.7 7.91 3.19 0.711 3.19 0.711 6 1.65 3.13 1.04 6.24 1.88 9.44 2.68 1.17 0.296 2.33 0.592 3.54 0.896 2.43 0.612 4.86 1.22 7.3 1.83 12.2 3.1 12.2 3.1 16.9 5.65 0.33 0.99 0.66 1.98 1 3-1.52 1.52-3.01 1.3-5.13 1.5-0.861 0.082-1.72 0.164-2.61 0.249-0.932 0.083-1.86 0.166-2.82 0.251-0.958 0.0869-1.92 0.174-2.9 0.263-2.84 0.253-5.69 0.497-8.53 0.737-1.08 0.0933-1.08 0.0933-2.17 0.188-28.1 2.37-57.9 1.99-83.8-10.2-1.7-0.719-1.7-0.719-3.43-1.45-18.4-7.9-38.1-20.7-50.6-36.5-0.986-1.14-0.986-1.14-1.99-2.3-9.4-11-18.5-23-23-36.9-0.929-2.89-0.929-2.89-2.49-5.84-1.33-2.66-2.24-5.1-3.04-7.95-0.737-2.6-1.49-5.15-2.4-7.69-5.66-18-5.62-38.3-7.19-57.1-0.301-3.56-0.608-7.12-0.915-10.7-2.15-24.9-4.21-49.9-6.23-74.8-1.13-14-2.31-28-3.57-41.9-1.68-18.7-3.29-37.3-4.87-56-2.83-33.3-5.71-66.7-8.63-100-0.094-1.07-0.188-2.15-0.285-3.26-1.16-13.2-2.31-26.4-3.47-39.6-1.72-19.6-3.44-39.2-5.15-58.8-0.284-3.24-0.567-6.48-0.851-9.73-1.97-22.5-3.93-45.1-5.86-67.6-0.0806-0.942-0.161-1.88-0.244-2.85-0.406-4.74-0.811-9.48-1.22-14.2-0.161-1.89-0.323-3.77-0.484-5.66-0.0793-0.926-0.159-1.85-0.24-2.81-3.37-39.4-6.88-78.7-10.4-118-0.405-4.51-0.809-9.01-1.21-13.5-0.0974-1.09-0.195-2.17-0.295-3.29-1.57-17.5-3.1-35.1-4.59-52.6-0.859-10.1-1.75-20.1-2.63-30.2-0.102-1.16-0.203-2.32-0.308-3.51-1.25-14.2-2.51-28.4-3.79-42.7-0.206-2.28-0.413-4.57-0.619-6.85-0.136-1.51-0.273-3.02-0.409-4.54-0.0672-0.745-0.134-1.49-0.204-2.26-0.332-3.67-0.665-7.35-1-11-2.58-28.2-2.58-28.2-3.13-40.8-0.0375-2.77-0.0375-2.77-1.22-4.82-0.2-1.8-0.346-3.6-0.465-5.41-0.0769-1.12-0.154-2.25-0.233-3.4-0.0791-1.22-0.158-2.43-0.24-3.69-0.172-2.56-0.345-5.12-0.52-7.68-0.0885-1.3-0.177-2.61-0.268-3.95-0.337-4.74-0.732-9.48-1.13-14.2-1.27-15.3-1.82-30 0.167-45.3 0.118-0.913 0.235-1.83 0.356-2.77 0.807-5.59 2.21-10.4 4.33-15.6 0.458-1.56 0.898-3.12 1.31-4.69 4.46-15.1 13-30.9 22.7-43.3h2c0.227-0.701 0.454-1.4 0.688-2.12 2.54-5.56 6.98-9.66 11.3-13.9 0.557-0.598 1.11-1.2 1.69-1.81 1.31-1.19 1.31-1.19 3.31-1.19 0.201-0.557 0.402-1.11 0.609-1.69 1.93-3.21 4.67-5.12 7.64-7.31 0.561-0.425 1.12-0.851 1.7-1.29 3.6-2.71 7.27-5.26 11.1-7.71 0.583-0.391 1.17-0.781 1.77-1.18 16.2-10.6 36.2-17.8 55.4-20.3 1.44-0.192 1.44-0.192 2.91-0.388 10.2-1.32 20.4-2.25 30.6-3.12 2.04-0.178 4.07-0.356 6.11-0.535 5.42-0.474 10.8-0.942 16.3-1.41 5.72-0.493 11.4-0.993 17.1-1.49 9.26-0.807 18.5-1.61 27.8-2.41 11.6-1 23.1-2.01 34.7-3.03 53.7-4.73 107-9.29 161-13.7 8.79-0.726 17.6-1.45 26.4-2.18 0.982-0.0814 1.96-0.163 2.98-0.247 33.8-2.8 67.5-5.71 101-8.68 3.65-0.321 7.3-0.641 10.9-0.962 32.2-2.83 32.2-2.83 64.4-5.7 7.59-0.682 15.2-1.36 22.8-2.03 4.27-0.379 8.55-0.761 12.8-1.15 31.9-2.92 61.2-4.11 91.8 6.58z" fill="#FBFCFE"/>
<path transform="translate(972 890)" d="m0 0c1.43-0.00846 1.43-0.00846 2.88-0.0171 22 0.225 48 8.34 64.4 23.3 0.834 0.706 1.67 1.41 2.53 2.14 4.64 3.98 4.64 3.98 6.47 5.86v2c0.593 0.241 1.19 0.482 1.8 0.73 4.3 2.48 6.55 7.18 9.2 11.3 0.678 1.03 1.36 2.07 2.05 3.13 4.49 7.04 8 14.1 10.9 21.9 0.273 0.66 0.547 1.32 0.828 2 10.2 25.1 10.8 56.4 0.797 81.7-0.841 1.79-1.72 3.56-2.62 5.31-0.464 0.927-0.928 1.85-1.41 2.81-4.8 9.21-10.7 17.4-17.6 25.2-0.567 0.67-1.13 1.34-1.72 2.03-3.5 4.11-7.12 7.5-11.3 11-1.12 1.28-2.22 2.57-3.31 3.88-3.7 4.35-7.9 8-12.7 11.1h-2c-0.33 0.99-0.66 1.98-1 3-1.98 1.45-3.91 2.74-6 4-0.594 0.368-1.19 0.735-1.8 1.11-1.89 1.16-3.79 2.31-5.7 3.45-0.638 0.386-1.28 0.772-1.93 1.17-2.93 1.76-5.81 3.39-8.91 4.86-2.91 1.27-2.91 1.27-4.66 4.41 0.674-0.0105 1.35-0.0209 2.04-0.0317 19-0.256 36.6 0.846 55 6.03 0.649 0.179 1.3 0.358 1.97 0.542 22.3 6.21 42.6 16.1 59 32.5 0.603 0.559 1.21 1.12 1.83 1.7 1.17 1.3 1.17 1.3 1.17 3.3 0.99 0.33 1.98 0.66 3 1 1.27 1.42 1.27 1.42 2.52 3.25 0.461 0.667 0.922 1.33 1.4 2.02 0.48 0.716 0.96 1.43 1.45 2.17 0.495 0.733 0.989 1.47 1.5 2.22 12.3 18.5 18.3 38.3 18.4 60.4 0.00564 1.17 0.0113 2.34 0.0171 3.55-0.232 28.1-10.6 56.1-30.3 76.4h-2c-0.211 0.562-0.423 1.12-0.641 1.7-1.82 3.07-4.3 4.94-7.11 7.05-0.573 0.434-1.15 0.868-1.74 1.31-12.2 9.05-25.2 14.7-39.6 19.1-0.848 0.262-1.7 0.525-2.57 0.795-23.5 7.03-53.2 2.27-75.3-7.98-3.25-2-3.25-2-6-4-1.39-0.738-2.79-1.47-4.19-2.19-25.8-14.2-41.5-41.2-50-68.5-2.41-8.96-3.76-18-4.81-27.2-0.108-0.907-0.216-1.81-0.327-2.75-0.0898-0.815-0.18-1.63-0.272-2.47-0.145-0.62-0.29-1.24-0.439-1.88-0.66-0.33-1.32-0.66-2-1-0.182 0.871-0.364 1.74-0.551 2.64-0.251 1.19-0.503 2.38-0.762 3.61-0.244 1.16-0.487 2.32-0.738 3.52-0.713 3.28-1.52 6.52-2.34 9.77-1.81 7.19-3.43 14.4-4.98 21.7-0.151 0.702-0.301 1.4-0.456 2.13-2.36 11.1-4.35 22.3-6.04 33.5-0.103 0.681-0.206 1.36-0.313 2.06-3.94 26.3-3.79 51.2 2.19 77.1-7.52-1.63-15-3.45-22.4-5.31-1.24-0.309-2.47-0.618-3.75-0.937-8.39-2.11-16.7-4.32-25.1-6.7-4.24-1.19-8.5-2.26-12.8-3.28-1.97-0.773-1.97-0.773-3.97-3.77 2.35-2.89 4.64-5.65 7.31-8.25 5.27-5.39 9.89-11.2 13.7-17.8 0.872-1.37 0.872-1.37 1.76-2.77 21.4-33.9 34-73.8 44.2-112-0.66 0.66-1.32 1.32-2 2-0.763 0.743-1.53 1.49-2.31 2.25-2.74 2.8-5.21 5.72-7.69 8.75-3.16 3.87-6.31 7.61-10 11h-2c-0.389 0.889-0.389 0.889-0.785 1.8-8.88 16.1-34.3 26.3-51.2 31.2-10.4 3-20.5 3.3-31.2 3.38-1.27 0.014-2.53 0.028-3.84 0.0425-8.09-0.0412-15.2-1.19-22.9-3.42-2.25-0.492-4.51-0.941-6.77-1.38-12.9-3.62-25.9-11.3-36.2-19.6-0.742-0.567-1.48-1.13-2.25-1.72-11.7-9.54-19.8-22.9-25.9-36.5-0.719-1.6-1.47-3.18-2.23-4.76-10-22-11.7-46.7-5.58-70 0.166-0.647 0.333-1.29 0.504-1.96 3.75-14.3 9.83-27.3 18.9-38.9 1.74-2.14 1.74-2.14 2.57-5.14 1.62-1.71 3.3-3.37 5-5 0.825-0.866 1.65-1.73 2.5-2.62 2.39-2.27 4.67-3.74 7.5-5.38 0.405-0.434 0.81-0.869 1.23-1.32 17.3-16.4 47.7-23.4 70.8-23.8 29.8 1.14 58 10.7 83.9 25 3.33 1.8 6.71 3.47 10.1 5.14-0.701-0.928-1.4-1.86-2.12-2.81-3.43-4.81-6.14-9.96-8.88-15.2-0.423-0.77-0.846-1.54-1.28-2.33-8.48-16-11.7-33-14.7-50.7-0.201-1.13-0.201-1.13-0.407-2.29-5.64-32 1.58-64 20-90.7 4.19-5.85 8.93-10.4 14.4-15 0.741-0.641 1.48-1.28 2.25-1.94 6.76-5.67 14-9.92 21.8-14.1 0.623-0.335 1.25-0.67 1.89-1.02 7.96-4.15 16.5-6.49 25.1-8.98 1.17-0.347 2.34-0.694 3.54-1.05 7.38-1.89 14.6-2.22 22.1-2.26z" fill="#000102"/>
<path transform="translate(735,65)" d="m0 0c1.8 0.137 1.8 0.137 3.63 0.277 38.8 4.16 75.1 26.5 99.9 56 1.49 1.88 2.97 3.78 4.44 5.69 1.06 1.37 1.06 1.37 2.14 2.78 5.13 7.02 9.26 14.4 13.3 22.1 0.781 1.48 0.781 1.48 1.58 2.99 0.489 0.949 0.978 1.9 1.48 2.88 0.652 1.27 0.652 1.27 1.32 2.56 1.39 3.17 2.3 6.36 3.19 9.7 0.717-0.0709 1.43-0.142 2.17-0.215 36.7-3.62 73.4-6.8 110-10 6.47-0.568 12.9-1.14 19.4-1.72 7.42-0.66 14.8-1.31 22.3-1.95 3.75-0.323 7.5-0.65 11.3-0.988 50.7-4.55 50.7-4.55 74.7 0.893 0.728 0.161 1.46 0.322 2.21 0.488 29.5 6.76 55.7 21.9 76.8 43.5 0.946 0.86 0.946 0.86 1.91 1.74 6.69 6.26 11.7 13.4 16.6 21.1 1.03 1.58 2.08 3.14 3.14 4.7 4.61 6.93 7.94 14 11 21.8 0.476 1.19 0.952 2.39 1.44 3.61 5.63 14.3 8.46 27.9 9.87 43.1 0.956 0.236 1.91 0.471 2.9 0.714 10.1 2.51 20.2 5.15 30.3 7.86 1.64 0.438 3.27 0.877 4.91 1.31 4.36 1.17 8.72 2.34 13.1 3.51 2.73 0.734 5.46 1.47 8.19 2.2 31.3 8.4 62.5 16.9 93.8 25.4 8.04 2.2 16.1 4.38 24.1 6.54 3 0.81 6.01 1.62 9.01 2.43 1.81 0.486 3.62 0.97 5.43 1.45 8.59 2.29 17.1 4.7 25.5 7.65 0.671 0.235 1.34 0.47 2.03 0.712 17.7 6.39 34.7 16.8 48.8 29.2 0.575 0.494 1.15 0.988 1.74 1.5 29.9 25.8 48.5 62.2 51.8 102 0.446 6.33 0.695 12.7 0.779 19 0.0178 0.8 0.0356 1.6 0.054 2.43-0.0227 17.8-4.79 35.1-9.43 52.1-0.615 2.29-1.23 4.58-1.84 6.88-1.84 6.85-3.7 13.7-5.56 20.5-0.905 3.33-1.81 6.65-2.71 9.98-4.16 15.3-8.33 30.6-12.5 45.9-2.4 8.77-4.8 17.5-7.19 26.3-0.307 1.13-0.615 2.26-0.931 3.42-0.613 2.25-1.23 4.5-1.84 6.75-10.7 39.1-21.3 78.2-32.2 117-4.19 15.1-8.36 30.3-12.5 45.4-0.231 0.847-0.463 1.69-0.701 2.57-3.5 12.8-6.93 25.6-10.4 38.5-3.71 13.9-7.45 27.9-11.2 41.8-0.193 0.719-0.386 1.44-0.585 2.18-5.61 20.9-11.3 41.8-17 62.7-4.08 14.9-8.12 29.9-12.1 44.8-0.23 0.859-0.46 1.72-0.697 2.6-1.18 4.41-2.36 8.83-3.54 13.2-8.5 31.8-17.1 63.5-25.9 95.1-2.88 10.4-5.71 20.8-8.54 31.2-4.57 16.8-9.16 33.6-13.8 50.4-0.549 2-1.1 4-1.65 6.01-3.82 14-7.66 27.9-11.5 41.8-1.27 4.59-2.54 9.18-3.82 13.8-0.316 1.14-0.631 2.28-0.956 3.45-4.4 15.9-8.71 31.8-13 47.7-0.243 0.908-0.486 1.82-0.736 2.75-2.42 9.06-4.84 18.1-7.25 27.2-22.7 85.2-22.7 85.2-51.4 115-0.819 0.882-1.64 1.76-2.48 2.67-7.16 7.49-15 13.5-23.5 19.3-1.04 0.71-2.08 1.42-3.14 2.15-23.4 15.2-51 23.5-78.9 23.8-1.68 0.039-3.36 0.0781-5.04 0.117-1.72 0.0263-3.43 0.0498-5.15 0.0703-1.14 0.0199-1.14 0.0199-2.3 0.0403-12.7 0.0147-24.9-2.54-37-5.67-2.08-0.534-4.16-1.05-6.24-1.57-12.3-3.11-24.6-6.56-36.8-9.98-10.8-3.01-21.6-5.99-32.5-8.94-0.75-0.204-1.5-0.408-2.27-0.618-3.85-1.05-7.71-2.1-11.6-3.14-25.9-7.04-51.8-14.1-77.6-21.3-39.5-11-79.1-21.7-119-32.3-17.8-4.77-35.7-9.54-53.5-14.4-1.38-0.373-1.38-0.373-2.78-0.754-10-2.72-20.1-5.44-30.1-8.17-5.43-1.48-10.9-2.96-16.3-4.43-3.32-0.901-6.63-1.8-9.95-2.71-3.68-1-7.36-2-11-3.01-1.64-0.448-1.64-0.448-3.31-0.904-26-7.04-47.6-4.71-72.6 4.89-21.5 8.17-43.3 11.7-66.2 10.8-1.16-0.0457-1.16-0.0457-2.34-0.0923-41.4-2.01-78.3-22.5-106-52.5-16.4-18.2-26.5-39.8-36-62.2-4.44-10.4-9-20.8-13.6-31.1-0.819-1.85-1.64-3.7-2.46-5.55-6.42-14.5-12.9-29-19.3-43.5-5.7-12.8-11.4-25.7-17-38.5-3.27-7.5-6.57-15-9.94-22.4-4.32-9.55-8.52-19.1-12.7-28.8-0.614-1.41-1.23-2.81-1.84-4.22-0.313-0.717-0.626-1.43-0.949-2.17-2.47-5.66-4.96-11.3-7.44-17-0.378-0.86-0.756-1.72-1.15-2.61-0.77-1.75-1.54-3.5-2.31-5.26-6.25-14.2-12.5-28.4-18.6-42.7-3.74-8.65-7.52-17.3-11.3-25.9-3.5-7.95-6.96-15.9-10.4-23.9-6.3-14.6-12.7-29.1-19.1-43.6-2.26-5.12-4.52-10.2-6.77-15.4-4.75-10.8-9.55-21.6-14.4-32.4-14.1-31.8-28.2-63.6-42.2-95.5-2.59-5.89-5.17-11.8-7.77-17.7-8.84-20.1-17.6-40.2-26.4-60.4-5.14-11.8-10.3-23.7-15.5-35.5-3.02-6.88-6.03-13.8-9-20.7-0.271-0.627-0.542-1.25-0.821-1.9-0.27-0.626-0.54-1.25-0.819-1.9-5.17-12-10.4-23.9-15.8-35.8-5.24-11.6-10.4-23.3-15.6-35-5.92-13.4-11.9-26.8-17.8-40.2-7.04-15.8-14-31.6-20.9-47.5-1.86-4.33-3.74-8.66-5.65-13-1.18-2.69-2.36-5.37-3.54-8.06-0.813-1.85-1.63-3.7-2.45-5.54-7.12-16.3-11.7-32.6-14.1-50.2-0.132-0.971-0.263-1.94-0.399-2.94-0.738-5.81-1.11-11.5-0.914-17.3 0.0263-0.835 0.0527-1.67 0.0798-2.53 0.886-21.3 5.38-42.4 15-61.6 0.992-1.98 1.94-3.99 2.89-5.99 5.57-11.4 12.9-21.2 21.1-30.9 0.633-0.76 1.27-1.52 1.92-2.3 0.934-1.1 0.934-1.1 1.89-2.22 0.564-0.666 1.13-1.33 1.71-2.02 1.48-1.45 1.48-1.45 3.48-1.45v-2c2.97-2.76 6.2-5.21 9.38-7.72 1.55-1.23 3.08-2.49 4.61-3.75 5.8-4.67 11.7-8.68 18.2-12.3 0.778-0.43 1.56-0.861 2.36-1.3 9.07-4.93 18.5-9.04 27.9-13.1 1.89-0.825 3.77-1.65 5.66-2.48 13.2-5.77 26.5-11.5 39.7-17.1 10-4.27 19.9-8.64 29.9-13.1 6.83-3.05 13.7-6.03 20.6-8.96 6.83-2.91 13.6-5.94 20.3-9.11 6.2-2.91 12.5-5.71 18.7-8.51 0.633-0.284 1.27-0.568 1.92-0.861 8.42-3.78 16.9-7.49 25.4-11 4.12-1.7 8.18-3.51 12.2-5.39 8.92-4.14 17.9-8.06 27-12 1.85-0.81 3.7-1.62 5.55-2.43 2.75-1.2 5.49-2.41 8.24-3.61 5.76-2.52 11.5-5.06 17.3-7.59 10.8-4.77 21.6-9.51 32.5-14.2 1.68-0.732 3.35-1.46 5.03-2.2 8.82-3.86 17.7-7.67 26.5-11.4 6.37-2.66 12.7-5.45 18.9-8.38 5.61-2.58 11.3-4.96 17-7.37 13.6-5.79 27.2-11.7 40.7-17.8 0.806-0.362 1.61-0.724 2.44-1.1 3.18-1.43 6.36-2.86 9.53-4.28 6.56-2.95 13.1-5.89 19.7-8.81 1.03-0.458 2.06-0.916 3.12-1.39 6.98-3.1 14-6.19 21-9.28 0.911-0.403 1.82-0.805 2.76-1.22 4.7-2.08 9.41-4.15 14.1-6.23 7.95-3.51 15.9-7.01 23.8-10.6 35.3-15.9 67.7-27 107-23.4zm-50 11c-1.91 0.435-1.91 0.435-3.85 0.879-13.3 3.3-25.8 8.17-38 14.5-3.35 1.7-6.72 3.16-10.2 4.61-1.2 0.516-2.39 1.03-3.62 1.56-1.89 0.805-3.79 1.6-5.7 2.35-3.01 1.22-5.93 2.58-8.86 3.96-3.86 1.8-7.72 3.53-11.7 5.06-4.73 1.85-9.3 3.98-13.9 6.14-6.28 2.96-12.6 5.81-19 8.64-4.76 2.13-9.5 4.31-14.2 6.53-5.3 2.46-10.7 4.55-16.2 6.61-2.99 1.18-5.78 2.55-8.62 4.05-3.2 1.53-6.49 2.8-9.79 4.1-4.66 1.83-9.19 3.75-13.6 6.07-2.21 1.09-4.46 1.97-6.75 2.86-3.52 1.37-6.88 2.9-10.2 4.62-3.5 1.79-6.95 3.28-10.7 4.59-2.46 0.939-4.83 2.01-7.22 3.12-6.01 2.75-12.1 5.31-18.2 7.85-10 4.2-19.9 8.58-29.7 13.2-5.22 2.43-10.5 4.71-15.8 6.81-7.51 2.96-14.9 6.23-22.2 9.64-11.2 5.22-22.6 10.1-33.9 14.9-2.77 1.19-5.51 2.41-8.25 3.66l-2.85 1.3c-2.09 0.962-4.19 1.93-6.27 2.91l-3.32 1.55c-0.991 0.465-1.98 0.931-3 1.41-2.66 1.18-5.31 2.28-8.02 3.34-6.25 2.48-12.3 5.34-18.4 8.19-6.91 3.24-13.8 6.38-20.9 9.16-2.44 0.979-4.76 2.11-7.08 3.34-4.09 2.09-8.22 3.81-12.5 5.47-3.33 1.37-6.5 3-9.69 4.69-3.27 1.56-6.6 2.87-9.96 4.2-5.3 2.12-10.5 4.39-15.8 6.64-1.21 0.518-2.41 1.04-3.66 1.57-13.6 5.86-27.2 11.9-40.7 18-5.25 2.35-10.5 4.59-15.9 6.81-8.96 3.75-17.9 7.53-26.7 11.6l-2.05 0.95c-3.31 1.57-6.22 3.25-9.08 5.55-2.52 1.55-5.06 3.03-7.62 4.5-2.31 1.33-2.31 1.33-3.69 2.82-2.22 2.22-4.63 4.14-7.06 6.12l-2.84 2.31c-1.77 1.43-3.57 2.84-5.38 4.22-2.57 2.17-4.49 4.43-6.53 7.09-2.18 2.82-4.35 5.42-6.88 7.94-11.9 14.3-20 31.5-26 49l-0.961 2.61c-3.23 9.01-4.24 18.2-4.79 27.7-0.246 2.65-0.246 2.65-1.25 4.65-0.0983 2.84-0.139 5.66-0.125 8.5l-0.0117 2.38c-0.101 4.19-0.101 4.19 1.14 8.12 0.229 1.46 0.415 2.94 0.578 4.41 1.96 16.6 5.65 31.2 12.4 46.6 0.794 1.96 1.59 3.92 2.38 5.88 1.85 4.47 3.92 8.76 6.12 13.1 2.82 5.55 5.16 11.1 7.32 17 1.83 4.8 4.01 9.43 6.18 14.1 1.67 3.66 3.34 7.33 5 11 0.327 0.714 0.655 1.43 0.992 2.16 2.14 4.72 4.09 9.51 6.01 14.3 3.16 7.95 6.55 15.6 10.4 23.2 2.87 5.64 5.25 11.4 7.46 17.3 2.92 7.77 6.66 15.1 10.4 22.5 3.2 6.52 5.77 13.2 8.3 20.1 1.3 3.19 2.77 6.22 4.33 9.29 1.77 3.54 3.38 7.16 4.98 10.8 0.349 0.785 0.698 1.57 1.06 2.38 2.45 5.56 4.67 11.2 6.8 16.9 1.71 4.34 3.68 8.53 5.67 12.7 2.14 4.62 4.12 9.31 6.11 14 1.25 2.92 2.54 5.81 3.87 8.7 3.28 7.17 6.42 14.4 9.56 21.6 0.394 0.905 0.788 1.81 1.19 2.74 8.29 19 8.29 19 12.1 27.9 2.78 6.52 5.76 12.9 8.75 19.4 2.16 4.69 4.17 9.41 6.06 14.2 3.88 9.86 8.18 19.5 13.1 28.9 2.18 4.27 3.78 8.75 5.43 13.2 1.97 4.96 4.21 9.79 6.44 14.6 5.35 11.7 10.7 23.3 15.5 35.2 1.71 4.25 1.71 4.25 4.51 7.81 0.822 1.96 1.58 3.94 2.31 5.94 1.97 5.26 4.13 10.3 6.5 15.4 1.17 2.58 2.22 5.18 3.25 7.81 1.16 2.96 2.4 5.8 3.88 8.62 1.75 3.39 3.11 6.86 4.44 10.4 2.03 5.41 4.4 10.5 7.1 15.6 1.67 3.44 3.06 6.95 4.46 10.5 1.7 4.21 3.61 8.32 5.5 12.4 3.06 6.72 5.87 13.4 8.45 20.4 1.43 3.63 3.15 7.06 4.94 10.5 3.61 7.06 6.47 14.5 9.47 21.8 2.25 5.49 4.7 10.9 7.23 16.2 2.22 4.91 4.15 9.93 6.08 15 1.26 2.99 2.73 5.55 4.39 8.31 0.747 1.86 1.45 3.74 2.12 5.62 2.51 6.72 5.52 13.1 8.66 19.6 2.07 4.27 3.93 8.54 5.54 13 0.915 2.47 1.99 4.85 3.1 7.24 1.54 3.35 3.07 6.69 4.56 10.1 1.47 3.33 2.98 6.63 4.5 9.94 1.57 3.43 3.03 6.86 4.38 10.4 1.84 4.71 4.11 9.16 6.41 13.7 2.49 4.93 4.57 9.97 6.58 15.1 2.41 6.17 5 12.3 8.03 18.2 3.14 6.12 5.62 12.4 8.1 18.8 2.08 5.3 4.4 10.4 7 15.4 3.02 6.32 5.74 12.8 8.38 19.2 2.44 6.01 5.06 11.9 7.86 17.7 2.63 5.56 4.91 11.2 7.2 17 3.74 9.28 7.89 18.2 12.6 27.1 0.675 1.32 0.675 1.32 1.36 2.66 2.96 5.61 6.63 10.4 10.6 15.3 0.986 1.26 0.986 1.26 1.99 2.55 8.99 11.4 18.9 21.4 31 29.4 0.553 0.371 1.11 0.742 1.68 1.12 24.2 16.2 52.1 26.1 81.3 26.1 0.992-8.06e-4 1.98-0.00161 3.01-0.00244 6.41-0.0524 12.7-0.364 19.1-1.06 1.09-0.118 1.09-0.118 2.2-0.238 3.84-0.475 7.16-1.26 10.7-2.89v-1c-5.49-1.35-11.1-1.33-16.7-1.52-5.65-0.239-10.8-1.15-16.3-2.48-1.61-0.34-3.21-0.673-4.82-1l-2.43-0.5c-1.63-0.336-3.27-0.669-4.91-1-4.4-0.911-8.61-1.97-12.8-3.5l-2.83-1.01c-12.4-4.66-24.9-9.64-35.4-17.9-2.07-1.6-4.13-3.1-6.29-4.58-6.75-4.63-12.3-9.09-17.5-15.6-1.18-1.18-1.18-1.18-2.38-2.38-2.47-2.47-4.84-4.99-7.19-7.56-0.744-0.813-1.49-1.63-2.25-2.46-2.31-2.75-4.24-5.58-6.18-8.6-0.602-0.888-1.2-1.78-1.82-2.69-18-27.7-23-58.3-25.8-90.6-0.218-2.43-0.437-4.85-0.656-7.28-1.48-16.5-1.48-16.5-1.97-22.7-0.394-4.98-0.905-9.84-1.75-14.8-0.286-3.01-0.484-6.02-0.684-9.03-0.124-1.78-0.249-3.56-0.373-5.34-0.19-2.77-0.379-5.54-0.566-8.31-0.68-10-1.44-20-3-29.9-0.383-3.42-0.383-3.42-0.326-7.4 0.0206-5.64-0.666-11.1-1.35-16.7-1.28-11-2.36-22-3.33-33-0.0689-0.785-0.138-1.57-0.209-2.38-0.438-5-0.872-10-1.3-15-0.391-4.51-0.786-9.03-1.18-13.5-0.75-8.58-1.5-17.2-2.24-25.7-1.39-16.1-2.79-32.1-4.2-48.2-0.324-3.71-0.647-7.42-0.97-11.1-2.19-25.2-4.45-50.3-6.76-75.5-1.64-17.8-3.19-35.7-4.51-53.5-1.27-17.2-2.81-34.3-4.34-51.4-0.385-4.3-0.766-8.6-1.15-12.9-0.645-7.25-1.3-14.5-1.96-21.8-0.399-4.41-0.781-8.81-1.15-13.2-0.167-1.92-0.334-3.83-0.5-5.75-0.0655-0.83-0.131-1.66-0.198-2.51-0.328-3.67-0.624-5.64-2.71-8.77-2.29-0.399-2.29-0.399-4.94-0.375-9.71-0.659-17.1-5.32-24.8-11.1-2.35-1.6-4.62-2.59-7.29-3.55l-3 3c5.09 17.4 15.4 34.1 28.6 46.5 1.37 1.48 1.37 1.48 2.37 4.48l-1.84 0.516c-5.53 1.6-10.8 3.48-16 5.81-2.13 0.672-2.13 0.672-5.13-0.328l-0.262-3.67c-0.745-9.27-1.92-18.2-4.18-27.3-0.205-0.833-0.41-1.67-0.622-2.52-1.14-4.33-2.49-7.75-4.94-11.5-0.493-1.4-0.955-2.82-1.38-4.25-0.674-2.04-0.674-2.04-1.62-3.75-2.47-1.31-2.47-1.31-5-1-2.48 2.48-2.39 3.61-2.75 7.05-0.173 1.51-0.173 1.51-0.35 3.06-0.227 2.12-0.451 4.25-0.672 6.38l-0.354 3.07c-0.146 1.39-0.146 1.39-0.295 2.8-0.668 3.03-1.89 5.07-3.58 7.65-0.309 0.701-0.619 1.4-0.938 2.12-1.3 2.3-2.96 3.33-5.06 4.88v2c-1.05 0.289-2.1 0.578-3.19 0.875-3.61 0.96-3.61 0.96-6.04 2.17-7.48 2.58-18.1 2.33-25.3-1.11-1.53-0.93-3.03-1.91-4.5-2.94-0.789-0.519-1.58-1.04-2.39-1.57-10-7.12-16.2-18.4-18.3-30.4-1.95-18.4 2.52-34.6 7.42-52.2 5.62-20.2 10.8-40.4 14.8-60.9 0.13-0.662 0.26-1.32 0.394-2.01 1.18-6.03 2.26-11.7 2.11-17.9 4.47 2.07 8.47 4.25 12.4 7.16 6.1 4.32 12.5 7.97 19.1 11.6 2.33 1.32 4.65 2.63 6.97 3.96 1.02 0.573 2.03 1.15 3.08 1.74 2.46 1.49 2.46 1.49 4.46 3.49 0.681 0.268 1.36 0.536 2.06 0.812 2.42 0.979 4.49 2.02 6.75 3.31 6.21 3.51 12.6 6.63 19 9.79 2.25 1.12 4.49 2.25 6.73 3.38 0.734 0.37 1.47 0.739 2.22 1.12 1.42 0.715 2.84 1.43 4.26 2.15 2.85 1.7 2.85 1.7 5.96 2.44-0.276-11.8-1.19-23.4-2.57-35-2.32-19.8-4.03-39.7-5.65-59.6-0.596-7.29-1.21-14.6-1.81-21.9-0.226-2.72-0.452-5.44-0.678-8.16-1.29-15.5-2.64-30.9-4.04-46.4-0.204-2.27-0.408-4.53-0.613-6.8-0.287-3.19-0.574-6.37-0.861-9.56-1.25-13.8-2.44-27.7-3.6-41.5-0.192-2.29-0.385-4.59-0.578-6.88-4.51-53.7-9.01-110 27.8-154 1.64-2.02 1.64-2.02 2.94-4.41 2.7-4.34 6.34-7.72 9.95-11.3l2.42-2.42c7.52-7.38 15.6-14.4 25.3-18.9v-2l2.5-0.688c2.85-1.07 4.77-2.05 7.25-3.69 4.53-2.92 9.21-4.75 14.2-6.62 1.21-0.476 2.42-0.951 3.67-1.44 1.34-0.52 2.68-1.04 4.02-1.56l3.7-1.44c11.7-4.13 23.3-6.33 35.6-7.56 1.52-0.161 3.03-0.323 4.55-0.486 16-1.68 32-2.95 48-4.21 1.01-0.0802 2.02-0.16 3.06-0.243 1.9-0.151 3.81-0.299 5.71-0.443 0.846-0.0673 1.69-0.135 2.56-0.204 0.737-0.0568 1.47-0.114 2.23-0.172 2.15-0.208 2.15-0.208 4.94-1.25 1.65-0.161 3.31-0.273 4.96-0.359 1.08-0.0612 2.16-0.122 3.27-0.186 1.22-0.0677 2.44-0.135 3.7-0.205 15.9-0.953 31.8-2.25 47.7-3.58 1.97-0.165 3.94-0.329 5.9-0.493 13.7-1.14 27.4-2.33 41.1-3.66 11.1-1.07 22.1-2.07 33.2-3.08 0.667-0.0608 1.33-0.122 2.02-0.184 46.4-4.23 92.7-8.22 139-12.3 1.2-3.6 0.764-4.15-0.809-7.46-0.413-0.877-0.826-1.75-1.25-2.66-0.454-0.929-0.909-1.86-1.38-2.82-0.69-1.42-0.69-1.42-1.39-2.88-11.4-23.1-29.7-43.9-51.2-58.2-0.842-0.576-1.68-1.15-2.55-1.75-22.7-15.1-49.5-22.7-76.6-22.6-0.677 0.00149-1.35 0.00298-2.05 0.00452-10.9 0.0429-21.2 0.808-31.8 3.31zm346 87.5c-4.09 0.368-8.17 0.725-12.3 1.08-6.97 0.612-13.9 1.23-20.9 1.86-10 0.896-20 1.78-30 2.66-14.6 1.28-29.1 2.57-43.7 3.86-25.7 2.28-51.3 4.52-77 6.74-3.14 0.272-6.29 0.545-9.43 0.817-27.7 2.4-55.5 4.72-83.2 6.94-34.5 2.76-68.9 5.75-103 8.76-8.32 0.727-16.6 1.45-25 2.17-10.3 0.894-20.6 1.79-30.8 2.68-4.41 0.384-8.83 0.768-13.2 1.15-14.2 1.24-28.4 2.48-42.6 3.75-1.01 0.0894-2.01 0.179-3.05 0.271-5.99 0.533-12 1.07-18 1.62-1.84 0.167-3.68 0.333-5.52 0.498-18.7 1.56-18.7 1.56-36.8 6.11-1.11 0.378-1.11 0.378-2.24 0.764-6.58 2.31-13 4.94-19.4 7.67-0.943 0.394-1.89 0.789-2.86 1.2-6.65 2.9-12.3 6.54-18.1 10.9-1.05 0.745-2.09 1.49-3.17 2.26-7.13 5.11-7.13 5.11-13.8 10.7v2l-1.75 0.688c-2.85 1.66-4.25 3.7-6.25 6.31-1.67 1.67-3.33 3.33-5 5-3.02 3.09-3.02 3.09-4 7h-2c-1.83 2.51-3.53 5.01-5.19 7.62-0.493 0.772-0.986 1.54-1.49 2.34-9.43 15-17 31.5-20.3 49-0.118 0.622-0.237 1.24-0.359 1.89-0.421 2.26-0.813 4.53-1.2 6.8-0.139 0.733-0.277 1.47-0.42 2.22-2.45 14.5-0.945 29.5 0.42 44.1 0.274 3 0.542 6 0.809 9 0.0659 0.731 0.132 1.46 0.2 2.21 0.557 6.37 0.915 12.7 1.19 19.1 0.114 3.96 0.114 3.96 1.36 7.66 0.238 2.25 0.42 4.5 0.578 6.76 0.107 1.48 0.214 2.96 0.322 4.43 0.0565 0.798 0.113 1.6 0.171 2.42 1.24 17.4 2.73 34.8 4.3 52.2 0.434 4.8 0.868 9.61 1.3 14.4 0.109 1.21 0.218 2.42 0.331 3.67 1.42 15.8 2.77 31.6 4.12 47.4 1.79 21 3.66 41.9 5.53 62.9 2.53 28.4 5.06 56.8 7.59 85.3 0.0832 0.936 0.166 1.87 0.252 2.84 4.39 49.4 8.75 98.8 12.9 148 0.295 3.5 0.589 6.99 0.884 10.5 0.0706 0.837 0.141 1.67 0.214 2.54 1.64 19.5 3.37 38.9 5.11 58.4 2.38 26.7 4.69 53.3 6.93 80 0.309 3.68 0.618 7.36 0.928 11 0.0925 1.1 0.0925 1.1 0.187 2.22 0.966 11.5 1.95 23 2.95 34.4 0.0687 0.792 0.137 1.58 0.208 2.4 0.353 4.07 0.707 8.14 1.06 12.2 2.67 30.7 5.28 61.5 7.86 92.2 1.5 17.9 3.02 35.9 4.53 53.8 0.52 6.16 1.04 12.3 1.55 18.5 0.557 6.66 1.12 13.3 1.7 20 0.189 2.2 0.374 4.39 0.556 6.59 0.906 10.9 2.13 21.8 3.87 32.6 0.236 1.5 0.236 1.5 0.476 3.03 0.92 5.43 2.19 10 4.57 15 0.481 1.41 0.943 2.83 1.38 4.25 1.77 5.45 4.15 10.6 6.62 15.8 0.282 0.604 0.565 1.21 0.856 1.83 2.47 5.14 5.4 9.78 8.71 14.4 0.521 0.735 1.04 1.47 1.58 2.23 4.81 6.66 10.1 12.7 15.9 18.5l2.49 2.54c11.7 11.4 25.3 20.5 39.9 27.9 0.605 0.306 1.21 0.611 1.83 0.926 9.27 4.5 18.8 7.32 28.9 9.32 1.01 0.212 2.02 0.424 3.06 0.643 9.92 2.02 19.6 2.87 29.7 2.86 1.52-1.21e-4 1.52-1.21e-4 3.07-2.44e-4 13.1-0.0938 26.1-1.05 39.1-2.19 0.852-0.0723 1.7-0.145 2.58-0.219 1.82-0.183 3.62-0.469 5.42-0.781 0.33-0.66 0.66-1.32 1-2-6.01-6.71-17.8-7.53-26.2-9.56-2.47-0.603-4.95-1.21-7.42-1.82-1.08-0.264-2.17-0.527-3.29-0.799-3.09-0.817-6.09-1.79-9.11-2.82-2.31-0.642-4.62-1.27-6.94-1.88l-1.94-0.515c-3.44-0.911-6.88-1.81-10.3-2.69-1.02-0.263-1.02-0.263-2.05-0.532-1.9-0.491-3.79-0.976-5.69-1.46-3.05-0.93-3.05-0.93-6.05-2.93-2.3-0.591-4.61-1.01-6.94-1.44-2.06-0.562-2.06-0.562-4.06-2.56-1.07-0.371-2.14-0.742-3.25-1.12-16.7-6.04-35.4-18.6-46.5-32.3-2.76-3.41-5.07-6.17-9.27-7.57-0.708-1.31-1.36-2.65-2-4-0.755-1.13-1.53-2.25-2.32-3.36-6.32-8.89-11.9-17.8-16.7-27.6-0.532-1.06-1.06-2.12-1.61-3.21-4.8-10.3-7.22-21.1-9.76-32.1-0.536-2.26-1.14-4.48-1.76-6.72-2.1-8.35-1.73-17.4-1.87-25.9l-0.0371-2.24c-0.113-23.5 8.39-47.1 14.6-69.5 2.74-9.9 5.41-19.8 7.83-29.8 3.81-15.7 8.17-31.2 12.5-46.7 3.61-13 7.11-26.1 10.5-39.2 1.55-5.99 3.13-12 4.71-18 0.313-1.19 0.625-2.39 0.947-3.62 1.6-6.04 3.31-12 5.22-18 3.9-12.2 7.15-24.7 10.5-37.1 0.73-2.68 1.46-5.35 2.2-8.03 3.11-11.4 6.21-22.7 9.23-34.1 0.178-0.67 0.357-1.34 0.541-2.03 0.844-3.17 1.69-6.35 2.52-9.52 2.13-8.03 4.37-16 6.69-24 3.03-10.5 5.91-21 8.69-31.6 0.193-0.733 0.386-1.47 0.584-2.22 0.756-2.87 1.51-5.74 2.27-8.61 3.24-12.3 6.62-24.6 10.1-36.9 0.234-0.828 0.468-1.66 0.709-2.51 1.16-4.12 2.33-8.24 3.5-12.4 3.18-11.2 6.23-22.4 9.25-33.7 3.46-12.9 6.96-25.8 10.5-38.7 0.854-3.15 1.71-6.3 2.56-9.45 1.05-3.88 2.1-7.76 3.16-11.6 0.394-1.45 0.788-2.91 1.18-4.36 0.548-2.03 1.1-4.05 1.65-6.08 0.501-1.85 0.501-1.85 1.01-3.73 1.09-3.86 2.28-7.68 3.55-11.5 0.625-2.14 0.625-2.14-0.589-4.94v2c-0.928 0.227-1.86 0.454-2.81 0.688-3.89 1.6-4.19 2.71-6.19 6.31-5.58 8.69-11.5 17.1-17.7 25.3-3.52 4.65-6.75 9.4-9.77 14.4-1.67 2.6-3.54 4.95-5.5 7.33-7.89-1.4-13.5-9.46-18.3-15.3-0.549-0.568-1.1-1.14-1.66-1.72h-2c-0.66-1.32-1.32-2.64-2-4h-2c-0.213-0.54-0.426-1.08-0.646-1.64-1.85-3.23-4.39-5.62-7.03-8.2-0.84-0.832-0.84-0.832-1.7-1.68-1.79-1.77-3.58-3.54-5.38-5.3-1.78-1.75-3.56-3.51-5.34-5.27-1.1-1.09-2.21-2.18-3.32-3.27-3.28-3.24-6.32-6.6-9.26-10.2-1.42-1.68-1.42-1.68-3.77-3.44-2.95-2.37-5.21-5.04-7.67-7.91-3.88-4.41-8.16-8.45-12.4-12.6-15.3-15.6-27.1-35.5-27.7-57.8 0.174-9.37 2.3-16.8 6.75-25 1.49-2.69 1.49-2.69 2.51-5.52 1.18-2.83 2.2-2.96 4.93-4.21 1.02-1.08 1.02-1.08 2.06-2.19 8.63-8.95 19.8-13.1 32-13.8 11.1-0.0146 20.9 4.41 29 12 6.55 7.46 11.7 15.5 16.3 24.2 1.55 3.01 1.55 3.01 4.69 4.8 0.0947-0.913 0.0947-0.913 0.191-1.84 2.19-15.7 9.52-29.3 21.8-39.2v-2c1.52-0.402 1.52-0.402 3.06-0.812 2.6-0.733 4.82-1.58 7.31-2.69 10.2-4.21 20-4.36 30.4-0.5 7.23 3.22 13 7.26 18.4 13.1 2.15 2.2 4.46 4.05 6.89 5.93 0.145-0.632 0.29-1.26 0.44-1.91 2.61-11.3 5.29-22.5 8.62-33.6 3.57-11.9 6.82-24 10.1-36 4.48-16.6 9.02-33.3 13.6-49.9 1.08-3.89 2.15-7.77 3.23-11.7 0.257-0.929 0.515-1.86 0.78-2.81 2.26-8.15 4.51-16.3 6.74-24.5 0.536-1.96 1.07-3.92 1.61-5.88 1.71-6.26 3.34-12.5 4.89-18.8 1.45-5.92 3.14-11.7 4.97-17.5 1.16-3.79 2.22-7.6 3.25-11.4 0.187-0.694 0.374-1.39 0.567-2.1 0.765-2.85 1.53-5.69 2.29-8.54 4.54-17 9.32-33.9 19.6-48.4 1.51-2.09 1.51-2.09 3.2-5.27 4.56-8.21 10.7-17 17.9-22.9 3.59-3.05 6.59-6.33 9.55-9.99 1.75-1.81 3.34-2.71 5.64-3.7v-2c0.713-0.249 1.43-0.498 2.16-0.754 3.15-1.38 5.55-3.1 8.28-5.18 3.72-2.83 7.34-5.05 11.6-7.06 0.846-0.516 1.69-1.03 2.56-1.56 2.44-1.44 4.8-2.41 7.44-3.44 1.65-0.644 3.29-1.29 4.94-1.94 0.813-0.318 1.63-0.637 2.46-0.965 2.66-1.08 2.66-1.08 5.37-2.57 3.2-1.52 6.06-2.35 9.51-3.1 1.76-0.385 1.76-0.385 3.55-0.777 1.21-0.257 2.42-0.513 3.67-0.777 1.21-0.264 2.42-0.529 3.67-0.801 11.1-2.4 21.5-3.46 32.8-3.57 1.22-0.0122 1.22-0.0122 2.46-0.0246 17.1-0.0828 37.1 1.48 52.6 9.52 1.93 0.506 3.87 0.959 5.81 1.38 7.46 1.66 14.8 3.63 22.2 5.62 2.5 0.668 5 1.33 7.5 2 1.24 0.331 2.48 0.663 3.76 1 2.47 0.658 4.95 1.31 7.42 1.96 5.75 1.51 11.5 3.06 17.2 4.77 8.6 2.58 17.3 4.89 26 7.09 12.4 3.12 24.7 6.36 37 9.88 4.73 1.35 9.46 2.63 14.2 3.81 5.35 1.32 10.6 2.81 15.9 4.36 6.97 2.02 14 3.9 21 5.62 7.63 1.87 15.2 3.94 22.7 6.13 7.15 2.07 14.3 4.02 21.5 5.94 7.09 1.89 14.2 3.81 21.2 5.94 9.78 2.95 19.7 5.42 29.6 7.95 8.01 2.06 15.9 4.41 23.9 6.78 3.69 1.1 7.34 2.1 11.1 2.77 1.62-3.25 0.389-6.55-0.25-10-0.141-0.772-0.283-1.54-0.428-2.34-1.91-10.1-5.21-19.2-9.32-28.7-0.33-0.784-0.66-1.57-1-2.38-8-18.7-20.5-38.2-36.3-51.2-1.69-1.4-1.69-1.4-3.29-3.09-1.32-1.54-1.32-1.54-3.4-1.32v-2c-1.76-1.32-3.59-2.56-5.44-3.75-3.78-2.44-7.51-4.91-11.2-7.5-3.75-2.49-7.51-4.19-11.7-5.75-2.83-1.06-5.57-2.28-8.34-3.5-6.93-2.89-14-4.73-21.3-6.5-1.18-0.29-2.35-0.58-3.56-0.879-23.7-5.68-47.9-2.77-71.9-0.59zm-239 59.2c-1.61 0.836-3.24 1.64-4.88 2.42-26.2 12.5-47.7 34.6-61.6 59.9-0.707 1.19-1.41 2.38-2.12 3.56-4.99 9.15-8.29 18.5-11.3 28.4-0.655 2.12-1.37 4.21-2.1 6.31-1.76 5.25-3.05 10.6-4.34 16-1.9 7.73-3.89 15.4-6.12 23.1-2.37 8.11-4.53 16.3-6.62 24.4-1.87 7.29-3.75 14.6-5.94 21.8-3.23 10.7-5.91 21.5-8.67 32.3-2.49 9.68-4.98 19.4-7.76 29-1.76 6.08-3.36 12.2-4.94 18.3-2.15 8.31-4.42 16.6-6.8 24.8-2.36 8.19-4.58 16.4-6.78 24.7-1.73 6.46-3.49 12.9-5.29 19.3-1.3 4.63-2.55 9.26-3.69 13.9-1.79 7.33-3.93 14.6-6.02 21.8-2.03 7.04-3.98 14.1-5.93 21.2-0.629 2.27-1.26 4.54-1.89 6.81-1.94 6.96-3.87 13.9-5.72 20.9-3.47 13.1-7.16 26.1-10.9 39.1-1.61 5.62-3.12 11.3-4.46 17-0.457 1.77-0.991 3.51-1.57 5.24-1.03 3.13-1.92 6.25-2.77 9.43-0.319 1.2-0.637 2.39-0.965 3.62-0.338 1.28-0.675 2.55-1.02 3.86-0.357 1.34-0.713 2.68-1.07 4.02-2.33 8.77-4.61 17.6-6.87 26.4-2.26 8.79-4.65 17.5-7.18 26.2-1.82 6.29-3.5 12.6-5.13 18.9-2.05 7.97-4.2 15.9-6.44 23.8-2.98 10.6-5.83 21.1-8.64 31.8-2.43 9.16-4.95 18.3-7.56 27.4-1.73 6.09-3.31 12.2-4.83 18.3-1.9 7.66-3.89 15.3-5.9 22.9-0.636 2.42-1.27 4.85-1.9 7.27-2.2 8.39-4.51 16.7-6.99 25-2.35 7.91-4.35 15.9-6.36 23.9-1.96 7.77-4.07 15.5-6.47 23.1-1.67 5.5-3.06 11.1-4.47 16.6-2.04 7.95-4.11 15.9-6.41 23.7-1.57 5.49-3.05 11-4.53 16.5l-0.915 3.4c-1.4 5.21-2.78 10.4-4.14 15.6-0.225 0.865-0.45 1.73-0.682 2.62-0.412 1.59-0.822 3.18-1.23 4.78-0.724 2.8-1.45 5.52-2.55 8.2-1.19 3.05-2.03 6.1-2.85 9.27-0.254 0.967-0.254 0.967-0.513 1.95-0.368 1.41-0.735 2.81-1.1 4.22-0.6 2.31-1.2 4.61-1.81 6.92-0.861 3.28-1.72 6.57-2.58 9.85-0.325 1.24-0.325 1.24-0.656 2.5-0.445 1.7-0.889 3.4-1.33 5.1-0.652 2.5-1.31 5-1.96 7.49-0.196 0.753-0.392 1.51-0.594 2.28-1.07 4.09-2.28 8.09-3.65 12.1-0.359 1.49-0.694 2.99-1 4.5-0.733 3.61-1.82 7.01-3 10.5-2.5 8.14-4.63 16.4-6.62 24.6-0.206 0.846-0.412 1.69-0.624 2.56-0.616 2.6-1.19 5.2-1.75 7.81-0.193 0.904-0.387 1.81-0.586 2.74-1.51 7.88-1.69 15.6-1.62 23.6 0.0183 2.15 0.0205 4.3 0.0203 6.46-0.344 14.9-0.344 14.9 3.19 29.2 0.628 2.33 1.23 4.66 1.81 7 2.61 10.1 6.22 19.8 11.2 29 0.356 0.692 0.712 1.38 1.08 2.1 10.7 20.1 26.7 36.3 45 49.5 1.25 0.9 2.49 1.81 3.73 2.72 3.56 2.61 7.1 4.78 11.1 6.7l3.16 1.53c1.44 0.696 1.44 0.696 2.9 1.41 1.29 0.687 2.58 1.37 3.88 2.06 11.7 5.8 24.6 8.83 37.2 12.2 4.72 1.26 9.43 2.55 14.1 3.83 1.37 0.373 1.37 0.373 2.76 0.753 12.2 3.32 24.3 6.66 36.4 10.2 4.08 1.12 8.18 2.15 12.3 3.17 5.76 1.43 11.5 2.91 17.3 4.39 1.19 0.304 2.38 0.607 3.61 0.92 1.72 0.444 1.72 0.444 3.48 0.896 1.03 0.264 2.06 0.527 3.12 0.799 2.71 0.78 5.25 1.75 7.86 2.82 1.78 0.49 3.58 0.947 5.38 1.38 5.95 1.45 11.9 3.01 17.8 4.59 2.51 0.673 5.02 1.34 7.54 2 6.7 1.76 13.4 3.62 20 5.59 5.74 1.71 11.5 3.28 17.3 4.7 6.03 1.49 12 3.13 18 4.74 2.5 0.667 5 1.33 7.5 2 3.61 0.962 7.22 1.92 10.8 2.89 6.08 1.63 12.2 3.24 18.3 4.81 1.19 0.306 2.37 0.611 3.59 0.927 2.36 0.609 4.73 1.22 7.09 1.82 5.71 1.47 11.4 3.03 17 4.75 5.86 1.73 11.8 3.24 17.7 4.8 1.31 0.344 2.61 0.689 3.92 1.03 1.99 0.525 3.98 1.05 5.98 1.57 14.2 3.75 28.5 7.56 42.7 11.5 8.12 2.25 16.2 4.46 24.4 6.64 7.45 2 14.9 4.03 22.3 6.17 18.2 5.23 36.5 10.2 54.8 15.1 1.16 0.311 1.16 0.311 2.35 0.629 5.41 1.45 10.8 2.89 16.2 4.32 6.55 1.74 13.1 3.51 19.6 5.33 6.55 1.82 13.1 3.63 19.6 5.43 0.83 0.228 1.66 0.456 2.52 0.691 2.54 0.697 5.07 1.39 7.61 2.09 2.54 0.696 5.07 1.39 7.61 2.09 1.67 0.459 3.34 0.917 5.01 1.37 4.11 1.13 8.21 2.27 12.3 3.43 11.1 3.2 11.1 3.2 22.4 5.42 1.2 0.175 1.2 0.175 2.42 0.354 26.1 3.36 57.3 2.28 81.2-10.2 1.43-0.696 1.43-0.696 2.88-1.41 6.15-3.02 12.2-6.2 18.1-9.59v-2c0.969-0.268 1.94-0.536 2.94-0.812 1.01-0.392 2.02-0.784 3.06-1.19 0.33-0.99 0.66-1.98 1-3 2-0.667 4-1.33 6-2 0.33-0.99 0.66-1.98 1-3 1.33-0.667 2.67-1.33 4-2 2.75-2.42 2.75-2.42 5-5v-2l1.69-0.688c5.07-2.88 8.33-7.52 11.7-12.1 1.67-2.25 3.41-4.42 5.17-6.61 3.34-4.3 5.95-8.72 8.44-13.6l1.69-3.15c6.42-12.3 10.2-25.1 13.8-38.4 0.345-1.25 0.69-2.5 1.05-3.8 5.17-18.8 10.2-37.6 15.2-56.5 4.97-18.6 9.99-37.1 15.2-55.6 2.26-7.96 4.43-15.9 6.54-23.9 3.85-14.6 7.86-29.1 11.9-43.6 1.39-5.03 2.78-10.1 4.17-15.1 0.177-0.64 0.354-1.28 0.536-1.94 3.99-14.4 7.96-28.9 11.9-43.3 0.731-2.67 1.46-5.33 2.2-8 3.39-12.3 6.76-24.7 10-37 2.2-8.42 4.5-16.8 6.79-25.2 0.501-1.84 1-3.67 1.5-5.51 3.22-11.8 6.46-23.6 9.7-35.4 0.653-2.38 1.31-4.76 1.96-7.14 0.218-0.794 0.436-1.59 0.66-2.41 0.442-1.61 0.884-3.22 1.33-4.83 1.08-3.94 2.16-7.88 3.25-11.8 4.84-17.6 9.62-35.3 14.3-52.9 3.34-12.7 6.76-25.3 10.2-37.9 4.78-17.5 9.53-35.1 14.1-52.6 10.1-38.6 20.9-77.1 31.5-116 4.94-17.9 9.87-35.9 14.7-53.8 3.28-12.1 6.61-24.1 9.97-36.2 3.27-11.7 6.46-23.5 9.58-35.2 2.97-11.2 6-22.4 9.05-33.5 0.255-0.937 0.511-1.87 0.774-2.84 2.69-9.87 5.4-19.7 8.17-29.6 5.44-19.2 5.44-19.2 10.2-38.6 0.192-0.836 0.384-1.67 0.582-2.53 8.51-38.8-0.327-78.3-20.6-112-2.51-3.8-5.18-7.42-8-11-0.692-0.895-1.38-1.79-2.1-2.71-3.42-4.36-6.87-8.48-10.9-12.3-0.757-0.78-1.51-1.56-2.29-2.36-6.9-6.72-15.1-12-23.2-17.1-2.15-1.36-4.18-2.79-6.21-4.31-3.33-2.31-6.48-3.77-10.2-5.25-1.07-0.471-2.14-0.941-3.25-1.43-3.7-1.59-7.48-2.89-11.3-4.14l-1.92-0.631c-1.84-0.604-3.68-1.21-5.52-1.81-1-0.342-2-0.683-3.03-1.04-3.28-1.07-6.57-1.96-9.91-2.84-1.34-0.354-2.68-0.708-4.03-1.06-0.677-0.178-1.35-0.356-2.05-0.539-3-0.79-5.99-1.6-8.98-2.4-4.61-1.23-9.23-2.45-13.8-3.64-1.03-0.266-2.05-0.531-3.11-0.805-2.03-0.526-4.07-1.05-6.1-1.57-4.71-1.22-9.33-2.54-13.9-4.11-1.49-0.359-2.99-0.694-4.5-1-2.43-0.494-4.71-1.07-7.06-1.88-4.92-1.61-9.92-2.84-14.9-4.12-5.9-1.51-11.7-3.03-17.5-5-2.31-0.642-4.62-1.27-6.94-1.88-1.32-0.349-2.65-0.698-3.97-1.05-0.674-0.177-1.35-0.354-2.04-0.537-2.02-0.533-4.03-1.07-6.04-1.62-6.03-1.63-12.1-3.19-18.2-4.5-2.67-0.622-5.23-1.54-7.83-2.43-3.65-1.04-7.33-2.02-11-3-1.12-0.299-2.23-0.598-3.38-0.906-5.52-1.48-11-2.94-16.6-4.39-0.84-0.221-1.68-0.441-2.55-0.668-1.64-0.429-3.27-0.857-4.91-1.28-4.55-1.19-9.08-2.45-13.6-3.75-9.12-2.49-18.3-4.83-27.4-7.07-2.11-0.551-4.21-1.15-6.27-1.86-5.02-1.64-10.2-2.82-15.3-4.07-6.08-1.48-12.1-2.98-18-5-8.04-2.3-16.2-4.35-24.2-6.44-16.2-4.2-16.2-4.2-22.6-5.88-1.08-0.285-2.16-0.57-3.27-0.863-2.02-0.571-4.03-1.2-6.02-1.87-2.47-0.817-4.85-1.44-7.39-1.96-3.61-0.733-7-1.83-10.5-3-2.89-0.845-5.79-1.64-8.69-2.44-0.802-0.222-1.6-0.443-2.43-0.672-4.14-1.14-8.29-2.27-12.4-3.39-3.76-1.02-7.5-2.11-11.2-3.23-7.85-2.35-15.7-4.44-23.7-6.39-7.8-1.92-15.5-4.06-23.3-6.24-6.09-1.72-12.2-3.4-18.3-5.09-1.74-0.483-3.48-0.968-5.22-1.45-4.93-1.37-9.84-2.59-14.9-3.56-1.88-0.527-1.88-0.527-4.88-2.53-2.07-0.603-4.15-1.13-6.25-1.62-1.43-0.343-2.85-0.689-4.28-1.04-0.835-0.203-1.67-0.405-2.53-0.614-5.57-1.38-11.1-2.82-16.7-4.25-2.02-0.523-4.05-1.04-6.07-1.57-19.8-5.09-19.8-5.09-25.4-7-5.44-1.8-11.1-2.75-16.7-3.91-0.918-0.199-1.84-0.397-2.78-0.602-28.9-6.13-62.6-1.27-88.8 12.3z" fill="#000102"/>
<path transform="translate(627,537)" d="m0 0c2.18 1.98 4.21 4.01 6.21 6.17 1.8 1.85 3.69 3.34 5.79 4.83-0.599 6.19-1.96 11.8-3.75 17.8-2.11 7.18-4.09 14.4-5.88 21.6-1.69 6.87-3.44 13.7-5.29 20.5-0.843 3.14-1.66 6.28-2.46 9.42-2.65 10.3-5.43 20.5-8.59 30.7-1.84 5.99-3.14 11.9-4.11 18.1-1.2 3.67-2.96 5.42-5.93 7.85h-3c-0.13 0.824-0.13 0.824-0.262 1.66-0.971 3.07-2.61 5.14-4.55 7.71-2.08 2.78-4.13 5.54-6.05 8.43-2.7 4.04-5.58 7.95-8.45 11.9-4.34 5.96-8.51 11.9-12.3 18.2-1.34 2.03-2.4 3.63-4.37 5.07-7.26-0.436-14.3-9.99-19-15-0.886-1.03-1.76-2.07-2.62-3.12-2.33-2.81-4.78-5.31-7.38-7.88-0.959-0.953-1.92-1.91-2.88-2.86-0.504-0.501-1.01-1-1.53-1.52-2.27-2.26-4.54-4.52-6.81-6.78-1.19-1.19-2.38-2.37-3.58-3.56-1.74-1.73-3.48-3.46-5.21-5.19-0.527-0.522-1.05-1.04-1.6-1.58-2.49-2.49-4.86-5.02-7.1-7.75-2.07-2.48-4.2-4.36-6.71-6.36-2.5-2.2-4.57-4.75-6.73-7.29-3.87-4.4-8.14-8.43-12.3-12.5-15.3-15.6-27.1-35.5-27.7-57.8 0.195-10.5 3.06-18.6 8.19-27.8 0.455-0.838 0.91-1.68 1.38-2.54 3.4-5.16 8-8.65 13.1-12.1 0.547-0.382 1.09-0.763 1.66-1.16 10.8-7.44 22-9.59 34.9-7.22 15 3.9 24.8 16.1 32.4 28.9 1.41 2.44 2.78 4.9 4.13 7.38 1.25 2.55 1.25 2.55 2.5 3.7 0.0632-0.536 0.126-1.07 0.191-1.62 2.36-15.1 9.7-29 21.8-38.4 0.482-0.498 0.964-0.995 1.46-1.51 14.4-14 38-8.95 52.5 1.51z" fill="#FB080A"/>
<path transform="translate(539 287)" d="m0 0c0.873-0.00918 1.75-0.0184 2.65-0.0278 5.68 0.0276 10.8 0.862 16.3 2.28 1.23 0.284 2.47 0.567 3.74 0.859 16.2 4.03 29.9 10.7 38.8 25.3 3.54 6.76 4.95 11.8 4.85 19.3 0.0116 0.816 0.0232 1.63 0.0352 2.47-0.0518 10.8-5.52 18.1-12.7 25.7-3.85 3.73-8.13 6.58-12.7 9.38-0.984 0.625-0.984 0.625-1.99 1.26-3.37 2.05-4.96 2.74-9.01 2.74 0.642 3.07 0.642 3.07 2.79 3.96 1.13 0.423 1.13 0.423 2.28 0.855 11.2 4.73 17.8 12.6 22.5 23.7 2.83 7.8 4.49 15.9 6.21 24 1.31 6.05 2.89 11.7 5.36 17.3 0.869 2.13 0.869 2.13 1.37 4.34 0.323 1.97 0.323 1.97 2.31 2.85 0.722 0.309 1.44 0.619 2.19 0.938 0.86 0.756 0.86 0.756 1.74 1.53 4.49 2.93 10.1 2.16 15.3 1.47 4.04-1.88 6.32-4.94 8-9 0.556-3.07 0.946-6.13 1.34-9.22 0.706-2.97 1.19-4.04 3.66-5.78 3.69-0.688 3.69-0.688 7-1 2.84 4.26 2.45 8.24 1.65 13.1-1.81 8.05-6.14 14.4-12.8 19.1-8.62 4.45-18.5 4.03-27.9 3.94-1.22-6.45e-4 -2.45-0.00129-3.71-0.00195-14.7-0.0714-29-2.3-40-13-6.02-7.7-6.33-18-7.56-27.4-0.3-2.28-0.608-4.55-0.924-6.83-0.311-2.25-0.601-4.5-0.868-6.75-1.19-8.66-4.1-16.2-10.7-22.2-6.67-4.49-11.7-5.54-19.6-5.38-1.35 0.0137-1.35 0.0137-2.72 0.0276-16.8-0.83-16.8-0.83-31.7 3.28 0.0552 1.99 0.187 3.98 0.348 5.97 0.101 1.27 0.201 2.55 0.305 3.86 0.116 1.39 0.231 2.78 0.347 4.17 0.112 1.39 0.224 2.78 0.335 4.17 0.358 4.44 0.729 8.89 1.1 13.3 0.0653 0.782 0.131 1.56 0.198 2.37 1.06 12.7 2.18 25.4 3.36 38.1 9.57-0.33 19.1-0.66 29-1 1.26 2.52 1.1 4.31 1.06 7.12-0.00902 0.91-0.018 1.82-0.0273 2.76-0.0116 0.699-0.0232 1.4-0.0352 2.12-20.5 1.96-41 3.9-61.5 5.55-1.59 0.129-3.18 0.259-4.77 0.392-25.6 2.12-25.6 2.12-29.8 0.054-0.365-7.42-0.365-7.42 1.07-9.72 2.9-1.93 5.47-1.81 8.93-1.97 0.663-0.0334 1.33-0.0669 2.01-0.101 5.66-0.263 11.3-0.317 17-0.211-0.33-0.66-0.66-1.32-1-2-0.204-1.71-0.354-3.42-0.477-5.13-0.0809-1.09-0.162-2.17-0.245-3.3-0.128-1.8-0.128-1.8-0.258-3.63-0.143-1.93-0.286-3.87-0.43-5.8-0.154-2.08-0.307-4.17-0.459-6.25-0.54-7.37-1.1-14.7-1.66-22.1-0.0583-0.764-0.117-1.53-0.177-2.31-1.29-16.9-2.76-33.7-4.28-50.6-0.193-2.14-0.385-4.27-0.577-6.41-0.794-8.81-1.6-17.6-2.43-26.4-0.0988-1.05-0.198-2.11-0.299-3.19-0.267-2.83-0.539-5.65-0.814-8.48-0.0762-0.803-0.152-1.61-0.231-2.43-0.336-3.39-0.778-6.61-1.66-9.9-1.17 0.00786-1.17 0.00786-2.35 0.0159-3.51 0.0207-7.01 0.0338-10.5 0.0466-1.22 0.00838-2.45 0.0168-3.71 0.0254-1.75 0.00483-1.75 0.00483-3.54 0.00977-1.62 0.00786-1.62 0.00786-3.27 0.0159-2.61-0.114-2.61-0.114-4.61-1.11-0.054-1.62-0.0928-3.25-0.125-4.88-0.0232-0.905-0.0464-1.81-0.0703-2.74 0.195-2.38 0.195-2.38 2.2-4.38 2.31-0.386 2.31-0.386 5.23-0.578 1.09-0.0767 2.18-0.153 3.31-0.232 1.18-0.074 2.37-0.148 3.59-0.224 1.21-0.0836 2.42-0.167 3.67-0.253 3.88-0.267 7.76-0.521 11.6-0.774 3.88-0.258 7.76-0.519 11.6-0.785 2.42-0.165 4.83-0.325 7.25-0.481 1.09-0.0736 2.19-0.147 3.32-0.223 0.964-0.0628 1.93-0.126 2.92-0.19 2.57-0.185 2.57-0.185 5.44-1.26 3.02-0.354 6.03-0.664 9.06-0.938 0.922-0.0843 1.84-0.169 2.79-0.255 3.05-0.274 6.1-0.541 9.14-0.807 1.05-0.0946 2.1-0.189 3.18-0.287 11.6-1.04 23.2-1.9 34.9-1.96z" fill="#FC090B"/>
<path transform="translate(838 538)" d="m0 0c7.84 5.9 13.7 16.2 15.8 25.7 1.91 14.9 0.621 26-8.54 38.1-5.4 6.84-11.7 12.3-19.1 17h-2v4c1.26-0.0412 2.52-0.0825 3.81-0.125 13.4 0.0835 28.5 4.36 38.2 14.1 10.7 13.4 12.3 26.3 11 43-1.91 9.5-7.8 16.7-15 23-3.22 2.06-6.44 3.62-10 5-0.772 0.354-1.54 0.709-2.34 1.07-8.23 2.86-18.4 2.72-26.7-0.0742-1.19-0.369-1.19-0.369-2.41-0.746-11.1-3.87-19.8-11.7-25-22.1-2.73-6.11-4.23-11.5-4.56-18.1-2.78 2.78-2.79 5.22-3.5 9.06-0.801 4.27-1.61 8.53-2.62 12.8-2.59 11.6-2.47 23.5-0.875 35.2-2.88-0.763-5.75-1.54-8.62-2.31-0.808-0.213-1.62-0.427-2.45-0.646-4.61-1.26-8.71-2.72-12.9-5.04 1.04-3.21 2.14-5.17 4.37-7.75 6.27-7.38 9.54-17.7 12.9-26.7 0.242-0.637 0.485-1.27 0.734-1.93 1.65-4.49 2.86-8.98 3.95-13.6-1.44 1.1-2.88 2.21-4.31 3.31-0.801 0.615-1.6 1.23-2.43 1.86-1.89 1.53-3.56 3.09-5.26 4.82-7.9 6.72-16.2 8.55-26.4 8.44-0.927-0.00757-1.85-0.0151-2.81-0.0229-6.66-0.161-12-0.979-17.8-4.41-0.857-0.447-1.71-0.895-2.6-1.36-9.82-5.39-14.5-12.2-18.4-22.6-3.26-12-1.78-26.2 4.06-37.1 1.94-2.94 1.94-2.94 3.94-3.94 0.33-0.99 0.66-1.98 1-3 9.46-8.8 23-13.6 35.9-13.3 10.6 1.07 20.5 4.96 30.1 9.32-1.83-6.67-1.83-6.67-4.56-13-4.77-9.95-5.16-23.9-2.25-34.4 4.08-11.4 10.7-20.3 21.5-26 16.1-7.6 30.9-7.2 46.1 2.55z" fill="#000102"/>
<path transform="translate(290,603)" d="m0 0c4.33 0.745 6.65 1.96 10.2 4.62 7.93 5.78 16.5 10.5 25 15.3 1.1 0.625 2.2 1.25 3.34 1.89 0.996 0.561 1.99 1.12 3.02 1.7 2.41 1.46 2.41 1.46 4.41 3.46 0.681 0.268 1.36 0.536 2.06 0.812 2.42 0.979 4.49 2.02 6.75 3.31 6.21 3.51 12.6 6.63 19 9.79 3.73 1.85 7.46 3.72 11.2 5.58 2.31 1.15 4.62 2.31 7 3.5-0.495-12.9-0.495-12.9-1-26 3.76 2.51 3.73 3.82 4.69 8.12 0.251 1.1 0.503 2.19 0.762 3.32 0.182 0.843 0.364 1.69 0.551 2.55 0.33-0.99 0.66-1.98 1-3h1c0.495 4.46 0.495 4.46 1 9h2c1.88 14.8 3.19 29.7 4.5 44.6 0.236 2.67 0.473 5.34 0.71 8.02 0.495 5.59 0.988 11.2 1.48 16.8 0.498 5.66 0.997 11.3 1.5 17 0.0613 0.693 0.123 1.39 0.186 2.1 0.123 1.39 0.247 2.79 0.37 4.18 1.12 12.7 2.23 25.3 3.34 38 0.557 6.36 1.12 12.7 1.69 19.1 0.291 3.24 0.579 6.49 0.866 9.73 0.181 2.03 0.368 4.07 0.554 6.1 2.56 29.2 2.56 29.2-0.195 41.5-0.66-0.99-1.32-1.98-2-3-0.66 3.3-1.32 6.6-2 10h-1c-1.96-7.72-2.71-15.4-3.37-23.3-0.12-1.4-0.241-2.8-0.363-4.2-0.256-2.96-0.508-5.92-0.757-8.88-0.389-4.61-0.786-9.21-1.19-13.8-0.0662-0.763-0.132-1.53-0.2-2.31-0.133-1.54-0.267-3.08-0.4-4.61-0.199-2.3-0.398-4.6-0.596-6.89-1.02-11.8-2.08-23.6-3.19-35.5-0.167-1.78-0.333-3.55-0.497-5.33-0.223-2.41-0.451-4.82-0.68-7.23-0.0633-0.692-0.127-1.38-0.192-2.1-0.334-3.56-0.334-3.56-1.57-6.89-2.22-0.28-2.22-0.28-4.88-0.312-9.73-0.743-17.2-5.36-24.8-11.1-2.91-1.97-5.72-3.55-9.29-3.55 0.509 5.41 1.93 9.66 4.44 14.5 0.351 0.686 0.701 1.37 1.06 2.08 5.52 10.6 11.8 20.3 20.5 28.4v2c0.99 0.33 1.98 0.66 3 1 0.495 2.48 0.495 2.48 1 5-2.37 0.949-4.75 1.9-7.12 2.84-1.89 0.765-3.76 1.56-5.62 2.39-0.866 0.379-1.73 0.758-2.62 1.15-0.791 0.358-1.58 0.717-2.4 1.09-2.23 0.539-2.23 0.539-4.46 0.195-2.99-2.8-2.51-6.66-2.71-10.5-0.558-7.55-1.64-14.7-3.5-22.1-0.206-0.833-0.411-1.67-0.623-2.52-1.13-4.32-2.47-7.77-4.94-11.5-1.12-2.63-2.04-5.3-3-8-1.65 0.33-3.3 0.66-5 1-0.0752 0.671-0.15 1.34-0.228 2.03-0.349 3.05-0.717 6.1-1.08 9.16-0.118 1.06-0.236 2.11-0.357 3.2-0.126 1.02-0.251 2.04-0.381 3.1-0.165 1.41-0.165 1.41-0.333 2.84-0.698 3.03-1.91 5.09-3.62 7.68-0.433 0.825-0.866 1.65-1.31 2.5-4.25 6.3-10.4 9.77-17.7 11.5-9.88 1.25-18.6 0.863-27-5-0.789-0.531-1.58-1.06-2.39-1.61-10.4-7.54-17.2-18.7-19.3-31.5-1.78-18.4 2.56-34.5 7.46-52.1 7.45-26.7 13.4-53.5 18.3-80.8z" fill="#000102"/>
<path transform="translate(277,346)" d="m0 0c2.5 3.06 4.23 6.48 6 10 0.563 1.12 0.563 1.12 1.14 2.26 0.78 1.57 1.55 3.15 2.32 4.72 2.04 4 4.22 7.91 6.41 11.8 0.432 0.777 0.864 1.55 1.31 2.35 1.99 3.57 3.98 7.13 6.02 10.7 0.634 1.13 1.27 2.25 1.92 3.41 0.559 0.975 1.12 1.95 1.7 2.95 1.32 3.14 1.41 5.42 1.18 8.8-3.5 1.6-6.15 2.47-10 2-1.62-1.65-1.62-1.65-3-3.94-0.5-0.817-1-1.63-1.52-2.48-0.49-0.853-0.98-1.71-1.48-2.59-0.469-0.812-0.938-1.62-1.42-2.46-1.96-3.47-3.81-6.97-5.58-10.5h-2c-1.3-1.39-1.3-1.39-2.75-3.25-3.41-4.09-6.74-7.07-12-8.5-15.5-1.2-27.4 3.44-41.3 9.88-2.27 1.03-4.58 1.97-6.91 2.87 1.14 6.31 2.99 11.7 5.88 17.4 2.78 5.68 5.27 11.3 7.24 17.3 0.833 2.36 0.833 2.36 2.27 4.57 1.66 2.8 3 5.62 4.32 8.59 0.501 1.13 1 2.25 1.52 3.41 0.524 1.19 1.05 2.37 1.59 3.6 0.269 0.607 0.539 1.21 0.816 1.84 3.52 7.93 6.86 15.9 10 24 2.03 4.89 4.42 9.57 6.86 14.3 1.33 2.65 2.46 5.26 3.52 8.02 0.623 1.6 1.25 3.21 1.88 4.81 0.307 0.79 0.614 1.58 0.93 2.39 0.948 2.21 1.96 4.32 3.05 6.46 1.57 3.1 2.98 6.24 4.33 9.45 0.371 0.872 0.741 1.74 1.12 2.64 0.763 1.8 1.51 3.61 2.25 5.43 0.372 0.863 0.744 1.73 1.13 2.62 0.325 0.782 0.651 1.56 0.986 2.37 1.23 2.05 1.23 2.05 3.77 2.66 3.71 0.231 6.41-1.31 9.63-2.97 1.33-0.653 2.67-1.3 4-1.95 0.661-0.325 1.32-0.651 2-0.986 2.8-1.35 5.64-2.59 8.5-3.81 0.909-0.389 1.82-0.779 2.75-1.18 2.88-1.02 5.66-1.53 8.68-1.95 2.19 3.33 3.43 6.04 4 10-2.73 2.2-5.23 3.64-8.5 4.88-7.55 2.92-15 5.96-22.4 9.38-6.62 3.05-13.4 5.74-20.2 8.45-4.76 1.92-9.4 3.94-14 6.29-3.84 1.94-7.77 3.68-11.7 5.45-0.875 0.394-1.75 0.788-2.65 1.19-5.94 2.65-11.9 5.11-18 7.37-2.32 0.871-4.57 1.81-6.84 2.81-2.81 1.19-2.81 1.19-4.81 1.19v-2h-2c-2.05-4.35-2.05-4.35-1.83-7.03 0.834-1.97 0.834-1.97 2.75-3.18 0.824-0.331 1.65-0.661 2.5-1 1.36-0.563 1.36-0.563 2.75-1.14 0.957-0.378 1.91-0.755 2.9-1.14 1.87-0.758 3.73-1.52 5.6-2.28 0.908-0.369 1.82-0.737 2.75-1.12 2.96-1.26 5.8-2.67 8.64-4.19 2.58-1.21 5.24-2.05 7.95-2.91-1.73-4.11-3.46-8.21-5.19-12.3-0.724-1.72-0.724-1.72-1.46-3.48-2.62-6.22-5.31-12.4-8.12-18.5-2.16-4.73-4.26-9.49-6.35-14.2-0.476-1.08-0.952-2.16-1.44-3.27-3.32-7.57-6.55-15.2-9.75-22.8-4.65-11.1-9.56-22-14.5-33-5.18-11.4-10.2-22.9-15.2-34.4-1.9 0.205-1.9 0.205-3.84 0.414-0.713 0.0769-1.43 0.154-2.16 0.233-2.78 0.491-4.66 1.79-7 3.35-1.7 0.738-3.4 1.47-5.11 2.19-3.37 1.45-6.63 3.12-9.89 4.81-0.623 0.308-1.25 0.616-1.89 0.934-8.76 4.58-13.1 13-16.1 22.1-0.593 8.94-0.243 18.4 3.56 26.7 1.69 3.91 2.07 7.09 2.44 11.3-6.62 3-6.62 3-10 3v-2c-0.99-0.33-1.98-0.66-3-1-1.14-2.61-2.08-5.12-2.96-7.81-0.272-0.802-0.545-1.6-0.826-2.43-0.579-1.71-1.15-3.42-1.72-5.14-0.848-2.56-1.71-5.12-2.58-7.67-2.75-8.13-5.38-16.3-7.83-24.5-0.213-0.708-0.426-1.42-0.645-2.15-0.84-2.87-1.44-5.28-1.44-8.29 1.05-0.371 2.1-0.742 3.19-1.12 6.09-2.28 11.9-5.12 17.8-7.88 5-2.31 10-4.39 15.2-6.31 4.87-1.84 9.5-3.94 14.1-6.31 4.16-2.13 8.22-4.09 12.6-5.64 6.13-2.2 12.2-4.72 18-7.74 4.51-2.34 9.25-4.01 14-5.75 2.9-1.19 5.38-2.61 8.05-4.25 1.38-0.599 2.78-1.16 4.19-1.69 5.86-2.28 11.6-4.84 17.3-7.41 4.49-2.01 8.99-3.97 13.5-5.91 3.84-1.7 7.67-3.41 11.5-5.13 13.3-5.91 13.3-5.91 17.5-4.87z" fill="#000102"/>
<path transform="translate(782,267)" d="m0 0c6.17 0.554 11.8 1.57 17.8 3.31 0.782 0.223 1.56 0.446 2.37 0.676 5.52 1.58 11 3.28 16.5 4.99 9.06 2.74 18.3 5 27.4 7.31 1.54 0.388 3.07 0.776 4.61 1.16 2.35 0.594 4.7 1.19 7.06 1.77 2.32 0.578 4.64 1.16 6.96 1.75 0.708 0.174 1.42 0.348 2.15 0.527 4.95 1.27 4.95 1.27 7.18 3.5-0.0234 2.38-0.0234 2.38-0.375 5.12-0.111 0.91-0.222 1.82-0.336 2.76-0.0954 0.699-0.191 1.4-0.289 2.12-18.5-1.5-18.5-1.5-21-4-2.67-0.141-5.32-0.0425-8 0-6.6 23.7-13.2 47.5-19.6 71.2-0.593 2.19-1.19 4.38-1.78 6.57-3 11-5.91 22.1-8.5 33.2-0.21 0.889-0.42 1.78-0.636 2.69-2.94 13-2.52 24.3 4.69 35.8 9.55 13.1 24.9 17.4 40.2 20.1 4.35 0.487 8.63 0.628 13 0.656 1.2 0.0309 1.2 0.0309 2.42 0.0625 8.97 0.058 16.4-3.04 24.2-7.31 1.01-0.536 2.02-1.07 3.06-1.62 9.78-7.91 13.7-20.2 17.3-31.8 0.217-0.697 0.434-1.39 0.658-2.11 2.01-6.53 3.78-13.1 5.49-19.7 2.76-10.7 5.61-21.3 8.61-32 0.268-0.951 0.536-1.9 0.812-2.88 1.32-4.67 2.64-9.33 3.97-14 5.84-16.4 5.84-16.4 6.07-32.9-1.89-0.894-1.89-0.894-4.25-1.44-0.891-0.244-1.78-0.487-2.7-0.738-1.01-0.272-2.01-0.544-3.05-0.824-2.36-0.698-4.71-1.41-7.06-2.12-1.66-0.499-1.66-0.499-3.35-1.01-2.59-0.867-2.59-0.867-3.59-1.87 0.0859-2.03 0.0859-2.03 0.375-4.5 0.135-1.22 0.135-1.22 0.273-2.47 0.352-2.03 0.352-2.03 1.35-3.03 6.76-0.512 12.1 1.01 18.5 3.12 11.1 3.54 22.3 6.44 33.6 9.18 4.96 1.21 9.92 2.45 14.9 3.7v2h2c-0.875 7.75-0.875 7.75-2 10-3.3-0.45-6.58-0.924-9.86-1.51-5.82-1.04-11.2-1.72-17.1-1.49-4.18 7.29-6.02 15-8 23.1-0.663 2.67-1.33 5.34-2 8.01-0.245 0.984-0.245 0.984-0.496 1.99-1.42 5.65-3.01 11.3-4.63 16.9-1.01 3.5-1.95 7.01-2.88 10.5-1.27 4.81-2.6 9.6-4 14.4-1.27 4.38-2.38 8.74-3.35 13.2-3.28 14.9-7.57 29.2-17.7 40.9-0.576 0.746-1.15 1.49-1.75 2.26-4.1 5.12-8.44 7.84-14.3 10.7-1.09 0.701-2.19 1.4-3.31 2.12-9.1 5.15-19.8 5.4-29.9 5.31-1.27-0.0054-2.55-0.0108-3.86-0.0164-9.6-0.155-17.8-1.41-26.9-4.42-2.12-0.551-4.25-1.09-6.38-1.62-4.37-1.12-4.37-1.12-6.62-3.38-1.4-0.559-2.82-1.07-4.25-1.56-16.8-6.57-33.9-20.3-41.3-37-2.3-6.14-4.1-11.9-4.44-18.5-0.0825-1.3-0.165-2.6-0.25-3.94 0.215-14.1 4.69-28.1 8.5-41.5 0.497-1.77 0.993-3.55 1.49-5.32 0.975-3.5 1.95-6.99 2.93-10.5 2.27-8.12 4.45-16.3 6.62-24.4 1.09-4.1 2.21-8.19 3.34-12.3 0.756-2.75 1.51-5.5 2.25-8.24 0.362-1.32 0.728-2.65 1.1-3.97 0.513-1.84 1.01-3.68 1.51-5.53 0.291-1.05 0.581-2.11 0.881-3.2 0.685-3.45 0.729-6.63 0.623-10.1-1.23-0.188-1.23-0.188-2.49-0.379-3.95-0.698-7.81-1.59-11.7-2.56-1.07-0.254-1.07-0.254-2.15-0.514-3.36-0.83-5.75-1.61-8.66-3.55 0.141-1.46 0.288-2.92 0.438-4.38 0.0812-0.812 0.162-1.62 0.246-2.46 0.316-2.16 0.316-2.16 1.32-4.16z" fill="#000102"/>
<path transform="translate(528 301)" d="m0 0c0.809-0.00459 1.62-0.00918 2.45-0.0139 13.7 0.0356 13.7 0.0356 16.8 3.14 0.722 0.227 1.44 0.454 2.19 0.688 7.6 3.55 10.8 9.72 13.9 17.2 2.09 6.76 2.16 13.5 2.2 20.6 0.0206 0.911 0.0412 1.82 0.0625 2.76 0.0521 9.02-2.55 15-8.77 21.7-11.6 9.45-29.3 9.11-43.6 9.84-2.88 0.0565-2.88 0.0565-4.95 1.25-2.55 0.0717-5.07 0.0931-7.62 0.0625-0.706-0.00451-1.41-0.00902-2.14-0.0137-1.74-0.0118-3.49-0.0297-5.23-0.0488-1.47-4.04-2.33-7.69-2.69-12-0.1-1.15-0.2-2.31-0.303-3.5-0.099-1.23-0.198-2.47-0.3-3.74-0.108-1.28-0.216-2.56-0.328-3.89-0.228-2.71-0.451-5.42-0.67-8.12-0.28-3.45-0.568-6.9-0.861-10.4-0.28-3.32-0.554-6.63-0.829-9.95-0.103-1.23-0.206-2.46-0.312-3.73-1.01-12.5-1.01-12.5-0.711-17.7 2.3-2.3 2.92-2.31 6.04-2.59 0.807-0.0733 1.61-0.147 2.45-0.222 11.1-0.829 22.2-1.28 33.3-1.31z" fill="#FCFDFF"/>
<path transform="translate(639,550)" d="m0 0h3c0.495 1.49 0.495 1.49 1 3 0.33-0.66 0.66-1.32 1-2h2c-0.388 9.06-1.49 17.3-4 26-0.452 1.59-0.904 3.19-1.36 4.79-1.03 3.61-2.06 7.23-3.1 10.8-2.03 7.04-3.98 14.1-5.93 21.2-0.629 2.27-1.26 4.54-1.89 6.81-1.94 6.96-3.87 13.9-5.72 20.9-3.47 13.1-7.16 26.1-10.9 39.1-1.61 5.62-3.12 11.3-4.46 17-0.457 1.77-0.991 3.51-1.57 5.24-1.03 3.13-1.92 6.25-2.77 9.43-0.319 1.2-0.637 2.39-0.965 3.62-0.506 1.91-0.506 1.91-1.02 3.86-0.357 1.34-0.713 2.68-1.07 4.02-2.33 8.77-4.61 17.6-6.87 26.4-2.26 8.79-4.65 17.5-7.18 26.2-1.82 6.29-3.5 12.6-5.13 18.9-2.05 7.97-4.2 15.9-6.44 23.8-2.98 10.6-5.83 21.1-8.64 31.8-2.43 9.16-4.95 18.3-7.56 27.4-1.73 6.09-3.31 12.2-4.83 18.3-1.9 7.66-3.89 15.3-5.9 22.9-0.636 2.42-1.27 4.85-1.9 7.27-2.2 8.39-4.51 16.7-7 25-2.52 8.49-4.63 17.1-6.76 25.7-5.34 21.1-5.34 21.1-9.04 28.5-1.81 0.562-1.81 0.562-4 1-1.33 0.329-2.67 0.662-4 1 0.457-8.23 2.35-15.8 4.54-23.8 0.361-1.33 0.722-2.66 1.08-3.99 0.948-3.5 1.91-7 2.87-10.5 0.759-2.77 1.51-5.55 2.26-8.32 4.03-14.9 8.18-29.7 12.4-44.5 2.31-8.05 4.47-16.1 6.56-24.2 2.82-10.9 5.84-21.8 8.86-32.7 1.59-5.72 3.17-11.4 4.75-17.2 0.533-1.93 1.07-3.85 1.6-5.78 3.19-11.6 6.34-23.1 9.49-34.7 3.36-12.4 6.76-24.7 10.2-37 3.59-12.7 7-25.4 10.3-38.1 0.187-0.71 0.373-1.42 0.566-2.15 0.284-1.08 0.284-1.08 0.573-2.18 2.51-9.55 5.08-19.1 7.64-28.6 0.231-0.859 0.462-1.72 0.7-2.6 0.338-1.26 0.338-1.26 0.683-2.54 0.221-0.822 0.442-1.64 0.669-2.49 0.433-1.61 0.866-3.22 1.3-4.83 0.994-3.7 1.98-7.39 2.96-11.1 1.67-6.32 3.39-12.6 5.31-18.9 2.21-7.35 4.02-14.8 5.76-22.2 3-12.8 6.59-25.5 10.2-38.2 1.84-6.56 3.62-13.1 5.33-19.7 1.9-7.32 4-14.5 6.31-21.8z" fill="#000102"/>
<path transform="translate(408,835)" d="m0 0h1c3.15 36.5 6.3 72.9 9.45 109 0.104 1.21 0.208 2.41 0.315 3.66 1.07 12.4 2.14 24.9 3.21 37.3 2.15 25 4.31 49.9 6.47 74.9 1.12 12.9 2.24 25.9 3.35 38.8 0.692 8.04 1.39 16.1 2.08 24.1 0.653 7.53 1.3 15.1 1.95 22.6 0.335 3.91 0.672 7.81 1.01 11.7 0.313 3.58 0.621 7.17 0.926 10.8 0.163 1.91 0.332 3.82 0.501 5.73 0.622 7.39 0.866 14.7 0.736 22.1-0.99-1.98-0.99-1.98-2-4-0.33 2.64-0.66 5.28-1 8h-1c-0.199-1.03-0.199-1.03-0.402-2.08-0.177-0.901-0.353-1.8-0.535-2.73-0.174-0.893-0.348-1.79-0.527-2.71-0.513-2.59-0.513-2.59-1.54-5.48-0.122-1.35-0.2-2.7-0.246-4.05-0.0329-0.78-0.0657-1.56-0.0996-2.36-0.0609-1.63-0.118-3.26-0.172-4.89-0.234-5.37-0.504-9.71-4.48-13.7-0.309-2.46-0.309-2.46-0.438-5.81-0.345-7.33-1.1-14.6-1.89-21.9-1.81-17.2-3.32-34.4-4.81-51.6-0.392-4.51-0.786-9.02-1.18-13.5-0.749-8.57-1.5-17.1-2.24-25.7-1.48-17-2.96-33.9-4.44-50.9-0.242-2.77-0.483-5.53-0.725-8.3-1.66-19-3.33-38-5.06-57-0.0705-0.774-0.141-1.55-0.214-2.35-0.66-7.24-1.32-14.5-1.99-21.7-0.18-1.95-0.359-3.9-0.538-5.85-0.213-2.32-0.428-4.64-0.643-6.96-1.08-11.8-2.03-23.5-1.83-35.4 0.66 0.99 1.32 1.98 2 3 0.66-3.3 1.32-6.6 2-10 0.66 0.33 1.32 0.66 2 1 0.33-4.62 0.66-9.24 1-14z" fill="#0B0E0D"/>
<path transform="translate(363,321)" d="m0 0h2c0.66 0.66 1.32 1.32 2 2 1.32 0.697 2.65 1.37 4 2-0.0909 0.572-0.182 1.14-0.275 1.73-0.422 2.71-0.823 5.43-1.22 8.14-0.215 1.35-0.215 1.35-0.434 2.72-2.19 15.1-1.05 30.3 0.371 45.4 0.274 3 0.542 6 0.809 9 0.0988 1.1 0.0988 1.1 0.2 2.21 0.557 6.37 0.915 12.7 1.19 19.1 0.114 3.96 0.114 3.96 1.36 7.66 0.238 2.25 0.42 4.5 0.578 6.76 0.107 1.48 0.214 2.96 0.322 4.43 0.0847 1.2 0.0847 1.2 0.171 2.42 1.24 17.4 2.73 34.8 4.3 52.2 0.434 4.8 0.868 9.61 1.3 14.4 0.109 1.21 0.218 2.42 0.331 3.67 1.22 13.6 2.39 27.2 3.56 40.8 1.52 17.7 3.05 35.4 4.62 53.1 0.0787 0.889 0.157 1.78 0.239 2.69 0.226 2.55 0.452 5.09 0.679 7.64 0.0716 0.804 0.143 1.61 0.217 2.44 0.392 4.37 0.803 8.73 1.23 13.1 0.139 1.42 0.139 1.42 0.281 2.86 0.178 1.8 0.359 3.61 0.543 5.41 0.465 4.71 0.71 9.32 0.619 14.1h-2c-0.66-1.98-1.32-3.96-2-6-0.33 1.32-0.66 2.64-1 4-0.254-1.13-0.508-2.26-0.77-3.43-0.347-1.48-0.695-2.96-1.04-4.45-0.166-0.746-0.331-1.49-0.502-2.26-1.05-4.75-1.05-4.75-4.69-7.86-0.517-2.95-0.844-5.72-1.06-8.7-0.0764-0.887-0.153-1.77-0.231-2.69-0.248-2.91-0.477-5.83-0.706-8.74-0.169-2.02-0.34-4.04-0.511-6.07-0.344-4.06-0.682-8.11-1.02-12.2-0.611-7.37-1.32-14.7-2.04-22.1-1.1-11.6-2.07-23.2-2.99-34.8-1.22-15.3-2.57-30.6-3.95-45.9-0.435-4.84-0.87-9.68-1.3-14.5-0.104-1.16-0.209-2.33-0.317-3.53-1.28-14.2-2.51-28.4-3.7-42.7-0.192-2.29-0.385-4.59-0.578-6.88-6.36-75.7-6.36-75.7 1.4-97.3z" fill="#0B0E0D"/>
<path transform="translate(690,363)" d="m0 0c0.99 0.33 1.98 0.66 3 1 0.495 2.48 0.495 2.48 1 5 0.66-1.32 1.32-2.64 2-4 1.65 7.56-0.0687 13.6-2.12 20.9-0.325 1.21-0.651 2.42-0.986 3.66-1.89 6.97-3.88 13.9-5.97 20.8-3 10-5.49 20.2-8.09 30.4-2.49 9.68-4.98 19.4-7.76 29-1.76 6.08-3.36 12.2-4.94 18.3-1.92 7.45-3.92 14.9-6.06 22.2-3.53 12.2-6.79 24.4-10.1 36.7-0.444 1.66-0.888 3.32-1.33 4.98-0.892 3.34-1.78 6.68-2.67 10-1.17-3.92-0.696-6.98 0-11h-2c-0.33 2.31-0.66 4.62-1 7h-1c-0.33-2.31-0.66-4.62-1-7h-1c0.479-6.96 1.7-13.4 3.63-20 0.548-1.95 1.09-3.9 1.64-5.85 0.285-1 0.57-2.01 0.863-3.04 1.42-5.06 2.79-10.1 4.17-15.2 0.581-2.13 1.16-4.27 1.74-6.4 0.297-1.09 0.594-2.18 0.901-3.31 6.44-23.6 12.9-47.3 19.5-70.9 4.01-14.5 8.01-29.1 11.9-43.6 1.79-6.58 3.64-13.1 5.65-19.7z" fill="#000102"/>
<path transform="translate(520 1e3)" d="m0 0 1 2h3c0.33-0.66 0.66-1.32 1-2-1.43 7.97-3.49 15.7-5.69 23.5-0.719 2.58-1.44 5.16-2.16 7.74-0.181 0.649-0.362 1.3-0.549 1.97-1.8 6.46-3.55 12.9-5.3 19.4-0.286 1.06-0.572 2.12-0.867 3.22-1.33 4.94-2.64 9.88-3.92 14.8-0.227 0.874-0.455 1.75-0.689 2.65-0.416 1.6-0.829 3.21-1.24 4.81-0.722 2.79-1.45 5.51-2.55 8.18-1.22 3.13-2.07 6.26-2.91 9.51-0.351 1.34-0.702 2.68-1.05 4.02-0.179 0.687-0.358 1.37-0.543 2.08-0.882 3.37-1.78 6.74-2.69 10.1-0.352 1.32-0.703 2.64-1.05 3.96l-4.8 18c-0.66-1.32-1.32-2.64-2-4-1.29 1.23-1.29 1.23-3 4v-8c-0.66-0.33-1.32-0.66-2-1 0.734-6.96 2.66-13.6 4.5-20.3 0.543-2.01 1.08-4.01 1.62-6.02 0.378-1.4 0.757-2.81 1.14-4.21 1.35-4.99 2.67-9.98 3.99-15 0.185-0.704 0.371-1.41 0.562-2.13 0.375-1.42 0.75-2.85 1.12-4.27 3.94-15 7.99-29.9 12.1-44.8 0.606-2.17 1.21-4.34 1.81-6.52 0.821-2.96 1.65-5.93 2.48-8.89 0.239-0.865 0.477-1.73 0.723-2.62 0.223-0.787 0.446-1.57 0.675-2.39 0.19-0.679 0.38-1.36 0.576-2.06 0.651-1.81 0.651-1.81 2.65-4.81 0.99 0.66 1.98 1.32 3 2 0.33-0.99 0.66-1.98 1-3z" fill="#0C0F0E"/>
<path transform="translate(467,1202)" d="m0 0h1c1.79 5.36 2.26 9.95 2.16 15.6-0.0052 0.805-0.0104 1.61-0.0158 2.44-0.0177 2.56-0.0488 5.12-0.0819 7.67-0.955 18.5-0.955 18.5 2.94 36.3 0.493 2.67 0.725 5.3 1 8h-2c-1.42-3.82-2.24-6.91-2-11h-2c-0.33 0.66-0.66 1.32-1 2-0.66-0.66-1.32-1.32-2-2-0.99-0.33-1.98-0.66-3-1-2.04-6.08-2.45-12.1-2.69-18.4-0.0391-0.959-0.0781-1.92-0.118-2.91-0.39-11.4-0.207-22.6 2.81-33.7h2v4h2c0.33-2.31 0.66-4.62 1-7z" fill="#0B0E0D"/>
<path transform="translate(649,518)" d="m0 0c0.33 1.32 0.66 2.64 1 4h2c0.33-0.99 0.66-1.98 1-3 1.6 1.54 1.6 1.54 3 4-0.345 2.63-0.813 4.8-1.56 7.31-0.193 0.701-0.385 1.4-0.583 2.12-0.403 1.46-0.814 2.92-1.23 4.38-0.782 2.74-1.51 5.5-2.24 8.26-0.494 1.87-0.997 3.74-1.5 5.61-1 3.76-1.96 7.53-2.88 11.3-1.17-3.92-0.696-6.98 0-11h-2c-0.33 2.31-0.66 4.62-1 7h-1c-0.33-2.31-0.66-4.62-1-7h-1c0.484-7.46 1.93-14.4 3.94-21.6 0.265-0.996 0.53-1.99 0.803-3.02 0.26-0.944 0.519-1.89 0.787-2.86 0.352-1.28 0.352-1.28 0.711-2.58 0.762-1.97 0.762-1.97 2.76-2.97z" fill="#0C0F0E"/>
<path transform="translate(697,353)" d="m0 0c2.21 3.31 2.7 5.06 3 9-0.938 3.88-0.938 3.88-2 7h-3l-2 1c-3.32-10.4-3.32-10.4-1-15h2c0.33 0.99 0.66 1.98 1 3 0.66-1.65 1.32-3.3 2-5z" fill="#0A0D0C"/>
<path transform="translate(901,1265)" d="m0 0c0.99 0.33 1.98 0.66 3 1 1.1 3.3 0.871 4.4 0.0625 7.69-0.195 0.808-0.389 1.62-0.59 2.45-0.156 0.615-0.312 1.23-0.473 1.86-2.97-0.495-2.97-0.495-6-1 0.714-8.57 0.714-8.57 4-12z" fill="#161918"/>
<path transform="translate(347,731)" d="m0 0c4.49 2.18 6.31 4.29 8 9-0.312 2.88-0.312 2.88-1 5-0.99-1.32-1.98-2.64-3-4-0.99 0.33-1.98 0.66-3 1-2-3-2-3-2-7h2c-0.33-1.32-0.66-2.64-1-4z" fill="#090B0B"/>
<path transform="translate(614 1415)" d="m0 0c1.45 0.0309 1.45 0.0309 2.94 0.0625v2c-2.4 0.648-4.79 1.29-7.19 1.94-0.674 0.182-1.35 0.365-2.04 0.553-3.57 0.959-7.13 1.84-10.8 2.51v-2c0.66-0.33 1.32-0.66 2-1-0.66-0.66-1.32-1.32-2-2 0.927-0.0606 1.85-0.121 2.81-0.184 1.8-0.126 1.8-0.126 3.63-0.254 1.79-0.122 1.79-0.122 3.62-0.246 3.41-0.367 3.53-1.31 7-1.38z" fill="#0F1211"/>
<path transform="translate(1135,1270)" d="m0 0c1.03 4.41 1.04 6.93-1 11-0.33-0.66-0.66-1.32-1-2-2.02-0.652-2.02-0.652-4-1 0.599-2.35 1.27-4.69 2-7 2-1 2-1 4-1z" fill="#0B0E0D"/>
<path transform="translate(440,1207)" d="m0 0h1c2.39 23.8 2.39 23.8 2 34h-1c-0.228-1.92-0.456-3.84-0.684-5.76-0.291-2.26-0.291-2.26-0.83-4.56-0.483-2.66-0.601-5.06-0.584-7.76 0.00322-0.931 0.00645-1.86 0.00977-2.82 0.00838-0.96 0.0168-1.92 0.0254-2.91 0.00451-0.979 0.00902-1.96 0.0137-2.97 0.0117-2.41 0.0282-4.81 0.0488-7.22z" fill="#0C0F0E"/>
<path transform="translate(951,358)" d="m0 0c1.46 4.52 0.27 7.52-1 12-0.33-1.32-0.66-2.64-1-4h-3c-0.366-4.52-0.366-4.52 1.38-6.81 1.62-1.19 1.62-1.19 3.62-1.19z" fill="#0C0F0E"/>
<path transform="translate(778,707)" d="m0 0c1.32 0.33 2.64 0.66 4 1 0.125 2.38 0.125 2.38 0 5l-2 2v2h-6c1.32-1.32 2.64-2.64 4-4h-2v-2c0.66-0.33 1.32-0.66 2-1v-3z" fill="#0C0F0E"/>
<path transform="translate(333,745)" d="m0 0c1.56 1.06 1.56 1.06 3 3-0.312 3.69-0.312 3.69-1 7-0.66-1.32-1.32-2.64-2-4-1.32 0.33-2.64 0.66-4 1 0.312-2.38 0.312-2.38 1-5 0.99-0.66 1.98-1.32 3-2z" fill="#0B0E0D"/>
<path transform="translate(933,420)" d="m0 0c0.99 0.66 1.98 1.32 3 2-0.66 2.64-1.32 5.28-2 8-0.66-0.33-1.32-0.66-2-1 0.33-0.66 0.66-1.32 1-2h-4c1.07-2.92 1.78-4.78 4-7z" fill="#0C0F0E"/>
<path transform="translate(941,390)" d="m0 0c0.99 0.33 1.98 0.66 3 1-0.66 2.64-1.32 5.28-2 8-0.33-0.66-0.66-1.32-1-2h-3c-0.188-2.38-0.188-2.38 0-5 0.99-0.66 1.98-1.32 3-2z" fill="#0C0F0E"/>
</svg>
